<svg xmlns="http://www.w3.org/2000/svg" xmlns:xlink="http://www.w3.org/1999/xlink" width="85.2" height="31.1" viewBox="0 0 85.2 31.1">
  <defs>
    <clipPath id="clip-path">
      <rect id="Rectángulo_1" data-name="Rectángulo 1" width="85.2" height="31.1" transform="translate(0 0.597)" fill="#fff"/>
    </clipPath>
  </defs>
  <g id="Grupo_1" data-name="Grupo 1" transform="translate(0 -0.597)" clip-path="url(#clip-path)">
    <path id="Trazado_1" data-name="Trazado 1" d="M84.1,12c-4.6,0-7-2.5-9.1-4.8C72.9,5,71.2,3.1,67.5,3.1S62,5,60,7.2C57.9,9.4,55.5,12,50.9,12s-7-2.5-9.1-4.8C39.7,5,38,3.1,34.3,3.1S28.8,5,26.8,7.2C24.7,9.4,22.3,12,17.7,12s-7-2.5-9.1-4.8C6.6,5,4.8,3.1,1.1,3.1A1.135,1.135,0,0,1,0,1.9,1.23,1.23,0,0,1,1.1.6c4.6,0,7,2.5,9.1,4.8,2,2.2,3.8,4.1,7.5,4.1s5.5-1.9,7.5-4.1C27.3,3.1,29.7.6,34.3.6s7,2.5,9.1,4.8c2.1,2.2,3.8,4.1,7.5,4.1s5.5-1.9,7.5-4.1C60.5,3.1,62.9.6,67.5.6s7,2.5,9.1,4.8c2.1,2.2,3.8,4.1,7.5,4.1a1.23,1.23,0,0,1,1.1,1.3A1.2,1.2,0,0,1,84.1,12Z" fill="#db578a"/>
    <path id="Trazado_2" data-name="Trazado 2" d="M84.1,31.7c-4.6,0-7-2.5-9.1-4.8-2.1-2.2-3.8-4.1-7.5-4.1S62,24.7,60,26.9c-2.1,2.2-4.5,4.8-9.1,4.8s-7-2.5-9.1-4.8c-2.1-2.2-3.8-4.1-7.5-4.1s-5.5,1.9-7.5,4.1c-2.1,2.2-4.5,4.8-9.1,4.8s-7-2.5-9.1-4.8c-2.1-2.2-3.8-4.1-7.5-4.1-.6.1-1.1-.5-1.1-1.2a1.23,1.23,0,0,1,1.1-1.3c4.6,0,7,2.5,9.1,4.8,2.1,2.2,3.8,4.1,7.5,4.1s5.5-1.9,7.5-4.1c2.1-2.2,4.5-4.8,9.1-4.8s7,2.5,9.1,4.8c2.1,2.2,3.8,4.1,7.5,4.1s5.5-1.9,7.5-4.1c2.1-2.2,4.5-4.8,9.1-4.8s7,2.5,9.1,4.8c2.1,2.2,3.8,4.1,7.5,4.1a1.23,1.23,0,0,1,1.1,1.3A1.135,1.135,0,0,1,84.1,31.7Z" fill="#02a2a2"/>
  </g>
</svg>
