<svg width="24" height="24" viewBox="0 0 24 24" fill="none" xmlns="http://www.w3.org/2000/svg">
<path d="M19.1458 17.1445C17.8419 18.9634 16.092 20.1187 13.8962 20.6106C11.7004 21.1024 9.60635 20.7732 7.61412 19.623C6.5609 19.0149 5.68974 18.2456 5.00064 17.3152C4.31133 16.3839 3.82073 15.3728 3.52884 14.2818C3.23615 13.1911 3.15572 12.0703 3.28755 10.9194C3.41859 9.76878 3.78814 8.66685 4.39622 7.61363C4.99697 6.5731 5.76474 5.70514 6.69952 5.00973C7.6338 4.31404 8.64641 3.82024 9.73737 3.52835C10.8281 3.23566 11.9489 3.15523 13.0998 3.28706C14.2504 3.4181 15.3524 3.78765 16.4056 4.39573C17.0781 4.78402 17.684 5.2438 18.2232 5.77508C18.7625 6.30635 19.2223 6.90179 19.6029 7.56139C19.758 7.82016 19.7787 8.07741 19.6649 8.33317C19.5511 8.58892 19.334 8.7597 19.0138 8.84551C18.8336 8.89378 18.6474 8.87932 18.4551 8.80213C18.2628 8.72494 18.1225 8.60164 18.0342 8.43222C17.7112 7.90737 17.3426 7.43228 16.9283 7.00698C16.514 6.58167 16.0467 6.21883 15.5264 5.91846C13.8387 4.94407 12.0591 4.7074 10.1876 5.20846C8.3162 5.71032 6.89333 6.80509 5.91895 8.49278C4.94456 10.1805 4.70789 11.9601 5.20895 13.8317C5.7108 15.703 6.80558 17.1259 8.49326 18.1003C10.0541 19.0014 11.7003 19.271 13.4319 18.9091C15.1639 18.5467 16.561 17.6655 17.6231 16.2653C17.773 16.0643 17.9629 15.9329 18.1927 15.8714C18.4232 15.8096 18.6464 15.841 18.8621 15.9655C19.0778 16.0901 19.2146 16.2705 19.2723 16.5069C19.3306 16.7436 19.2884 16.9561 19.1458 17.1445Z" fill="#DB578A"/>
<path d="M12.6472 15.6485L10.1856 13.1869C10.0977 13.099 10.0318 13 9.98781 12.8898C9.94385 12.7802 9.92188 12.6668 9.92188 12.5495V9.05493C9.92188 8.80584 10.0063 8.59689 10.1751 8.4281C10.3433 8.25989 10.5519 8.17578 10.801 8.17578C11.0501 8.17578 11.2591 8.25989 11.4279 8.4281C11.5961 8.59689 11.6802 8.80584 11.6802 9.05493V12.2199L13.878 14.4177C14.0392 14.5789 14.1198 14.784 14.1198 15.0331C14.1198 15.2822 14.0392 15.4873 13.878 15.6485C13.7169 15.8097 13.5117 15.8903 13.2626 15.8903C13.0135 15.8903 12.8084 15.8097 12.6472 15.6485Z" fill="#DB578A"/>
<rect x="16.0742" y="9.93359" width="7.03317" height="1.75829" rx="0.879146" fill="#DB578A"/>
<rect x="16.0742" y="12.5703" width="4.39573" height="1.75829" rx="0.879146" fill="#DB578A"/>
</svg>
