<svg width="32" height="32" viewBox="0 0 32 32" fill="none" xmlns="http://www.w3.org/2000/svg">
<mask id="mask0_680_6119" style="mask-type:alpha" maskUnits="userSpaceOnUse" x="0" y="0" width="32" height="32">
<rect width="32" height="32" fill="#D9D9D9"/>
</mask>
<g mask="url(#mask0_680_6119)">
<path d="M21.368 9.80073C21.368 8.4674 21.5902 7.18384 22.0346 5.95006C22.4791 4.71717 23.1235 3.5674 23.968 2.50073C24.2124 2.18962 24.5346 2.00073 24.9346 1.93406C25.3346 1.8674 25.668 1.9674 25.9346 2.23406C26.1791 2.47851 26.3071 2.78384 26.3186 3.15006C26.3293 3.51717 26.2124 3.85628 25.968 4.1674C25.3457 4.98962 24.868 5.87851 24.5346 6.83406C24.2013 7.78962 24.0346 8.77851 24.0346 9.80073C24.0346 10.823 24.2013 11.8172 24.5346 12.7834C24.868 13.7505 25.3457 14.6452 25.968 15.4674C26.2124 15.7785 26.3293 16.1172 26.3186 16.4834C26.3071 16.8505 26.1791 17.1563 25.9346 17.4007C25.668 17.6674 25.3346 17.7674 24.9346 17.7007C24.5346 17.6341 24.2124 17.4452 23.968 17.1341C23.1457 16.0674 22.5071 14.9118 22.052 13.6674C21.596 12.4229 21.368 11.1341 21.368 9.80073ZM26.7013 9.7674C26.7013 9.12295 26.796 8.49495 26.9853 7.8834C27.1737 7.27273 27.4457 6.70073 27.8013 6.1674C28.0013 5.85628 28.296 5.67851 28.6853 5.63406C29.0737 5.58962 29.4013 5.70073 29.668 5.9674C29.9124 6.21184 30.0511 6.52295 30.084 6.90073C30.1177 7.27851 30.0457 7.62295 29.868 7.93406C29.7124 8.22295 29.5902 8.52295 29.5013 8.83406C29.4124 9.14517 29.368 9.45628 29.368 9.7674C29.368 10.1007 29.4071 10.423 29.4853 10.7341C29.5626 11.0452 29.6791 11.3452 29.8346 11.6341C30.0124 11.9452 30.0902 12.2896 30.068 12.6674C30.0457 13.0452 29.9124 13.3563 29.668 13.6007C29.4013 13.8674 29.0791 13.9785 28.7013 13.9341C28.3235 13.8896 28.0235 13.7118 27.8013 13.4007C27.4457 12.8674 27.1737 12.2896 26.9853 11.6674C26.796 11.0452 26.7013 10.4118 26.7013 9.7674ZM13.3346 17.3341C11.868 17.3341 10.6124 16.8118 9.56797 15.7674C8.52352 14.7229 8.0013 13.4674 8.0013 12.0007C8.0013 10.5341 8.52352 9.27851 9.56797 8.23406C10.6124 7.18962 11.868 6.6674 13.3346 6.6674C14.8013 6.6674 16.0569 7.18962 17.1013 8.23406C18.1457 9.27851 18.668 10.5341 18.668 12.0007C18.668 13.4674 18.1457 14.7229 17.1013 15.7674C16.0569 16.8118 14.8013 17.3341 13.3346 17.3341ZM5.33464 28.0007C4.6013 28.0007 3.97375 27.7398 3.45197 27.2181C2.9293 26.6954 2.66797 26.0674 2.66797 25.3341V24.2674C2.66797 23.5341 2.85686 22.8452 3.23464 22.2007C3.61241 21.5563 4.13464 21.0674 4.8013 20.7341C5.93464 20.1563 7.21241 19.6674 8.63464 19.2674C10.0569 18.8674 11.6235 18.6674 13.3346 18.6674C15.0457 18.6674 16.6124 18.8674 18.0346 19.2674C19.4569 19.6674 20.7346 20.1563 21.868 20.7341C22.5346 21.0674 23.0569 21.5563 23.4346 22.2007C23.8124 22.8452 24.0013 23.5341 24.0013 24.2674V25.3341C24.0013 26.0674 23.7404 26.6954 23.2186 27.2181C22.696 27.7398 22.068 28.0007 21.3346 28.0007H5.33464ZM5.33464 25.3341H21.3346V24.2674C21.3346 24.023 21.2737 23.8007 21.152 23.6007C21.0293 23.4007 20.868 23.2452 20.668 23.1341C19.868 22.7341 18.8404 22.3341 17.5853 21.9341C16.3293 21.5341 14.9124 21.3341 13.3346 21.3341C11.7569 21.3341 10.34 21.5341 9.08397 21.9341C7.82886 22.3341 6.8013 22.7341 6.0013 23.1341C5.8013 23.2452 5.64041 23.4007 5.51864 23.6007C5.39597 23.8007 5.33464 24.023 5.33464 24.2674V25.3341ZM13.3346 14.6674C14.068 14.6674 14.696 14.4061 15.2186 13.8834C15.7404 13.3616 16.0013 12.7341 16.0013 12.0007C16.0013 11.2674 15.7404 10.6394 15.2186 10.1167C14.696 9.59495 14.068 9.33406 13.3346 9.33406C12.6013 9.33406 11.9737 9.59495 11.452 10.1167C10.9293 10.6394 10.668 11.2674 10.668 12.0007C10.668 12.7341 10.9293 13.3616 11.452 13.8834C11.9737 14.4061 12.6013 14.6674 13.3346 14.6674Z" fill="#F7F7FB"/>
</g>
</svg>
