<svg width="73" height="72" viewBox="0 0 73 72" fill="none" xmlns="http://www.w3.org/2000/svg">
<circle opacity="0.3" cx="51.3359" cy="21" r="20" fill="#DB578A"/>
<path d="M42.1541 26.8909C42.1541 26.4545 42.3122 26.0056 42.6283 25.544C42.9425 25.0844 43.2935 24.7818 43.6814 24.6364C45.0875 24.1515 46.4935 23.7879 47.8996 23.5455C49.3056 23.303 50.7844 23.1818 52.3359 23.1818C53.3056 23.1818 54.2637 23.2419 55.2101 23.3622C56.1546 23.4844 57.0875 23.6424 58.0087 23.8364C58.445 23.9333 58.8203 24.1758 59.1345 24.5636C59.4506 24.9515 59.6087 25.3879 59.6087 25.8727C59.6087 26.697 59.342 27.303 58.8087 27.6909C58.2753 28.0788 57.5965 28.1758 56.7723 27.9818C56.0935 27.8364 55.3788 27.7268 54.6283 27.6531C53.8758 27.5813 53.1117 27.5455 52.3359 27.5455C51.0753 27.5455 49.839 27.6667 48.6269 27.9091C47.4147 28.1515 46.2511 28.4667 45.1359 28.8545C44.2632 29.1939 43.5485 29.1697 42.9919 28.7818C42.4334 28.3939 42.1541 27.7636 42.1541 26.8909ZM42.1541 42.8909C42.1541 42.4545 42.3122 42.0056 42.6283 41.544C42.9425 41.0844 43.2935 40.7818 43.6814 40.6364C45.0875 40.1515 46.4935 39.7879 47.8996 39.5455C49.3056 39.303 50.7844 39.1818 52.3359 39.1818C53.3056 39.1818 54.2637 39.2419 55.2101 39.3622C56.1546 39.4844 57.0875 39.6424 58.0087 39.8364C58.445 39.9333 58.8203 40.1758 59.1345 40.5636C59.4506 40.9515 59.6087 41.3879 59.6087 41.8727C59.6087 42.697 59.342 43.303 58.8087 43.6909C58.2753 44.0788 57.5965 44.1758 56.7723 43.9818C56.0935 43.8364 55.3788 43.7268 54.6283 43.6531C53.8758 43.5813 53.1117 43.5455 52.3359 43.5455C51.0753 43.5455 49.839 43.655 48.6269 43.8742C47.4147 44.0914 46.2511 44.3939 45.1359 44.7818C44.2632 45.1212 43.5485 45.1086 42.9919 44.744C42.4334 44.3813 42.1541 43.7636 42.1541 42.8909ZM42.1541 34.8909C42.1541 34.4545 42.3122 34.0056 42.6283 33.544C42.9425 33.0844 43.2935 32.7818 43.6814 32.6364C45.0875 32.1515 46.4935 31.7879 47.8996 31.5455C49.3056 31.303 50.7844 31.1818 52.3359 31.1818C53.3056 31.1818 54.2637 31.2419 55.2101 31.3622C56.1546 31.4844 57.0875 31.6424 58.0087 31.8364C58.445 31.9333 58.8203 32.1758 59.1345 32.5636C59.4506 32.9515 59.6087 33.3879 59.6087 33.8727C59.6087 34.697 59.342 35.303 58.8087 35.6909C58.2753 36.0788 57.5965 36.1758 56.7723 35.9818C56.0935 35.8364 55.3788 35.7268 54.6283 35.6531C53.8758 35.5813 53.1117 35.5455 52.3359 35.5455C51.0753 35.5455 49.839 35.6667 48.6269 35.9091C47.4147 36.1515 46.2511 36.4667 45.1359 36.8545C44.2632 37.1939 43.5485 37.1697 42.9919 36.7818C42.4334 36.3939 42.1541 35.7636 42.1541 34.8909ZM20.3359 47.9091C22.6147 47.9091 24.8334 48.1631 26.9919 48.6713C29.1485 49.1813 31.2935 49.9454 33.4268 50.9636V22.3091C31.439 21.1455 29.3299 20.2727 27.0996 19.6909C24.8693 19.1091 22.6147 18.8182 20.3359 18.8182C18.5905 18.8182 16.8576 18.9879 15.1374 19.3273C13.4152 19.6667 11.7541 20.1758 10.1541 20.8545V49.6545C11.8511 49.0727 13.5364 48.6364 15.2101 48.3455C16.8819 48.0545 18.5905 47.9091 20.3359 47.9091ZM39.245 50.9636C41.3784 49.9454 43.5243 49.1813 45.6828 48.6713C47.8395 48.1631 50.0572 47.9091 52.3359 47.9091C54.0814 47.9091 55.791 48.0545 57.4647 48.3455C59.1364 48.6364 60.8208 49.0727 62.5178 49.6545V20.8545C60.9178 20.1758 59.2576 19.6667 57.5374 19.3273C55.8152 18.9879 54.0814 18.8182 52.3359 18.8182C50.0572 18.8182 47.8026 19.1091 45.5723 19.6909C43.342 20.2727 41.2329 21.1455 39.245 22.3091V50.9636ZM36.3359 58.0182C35.6572 58.0182 35.0152 57.9338 34.4101 57.7651C33.8031 57.5944 33.2329 57.3636 32.6996 57.0727C30.8087 55.9576 28.8208 55.1217 26.7359 54.5651C24.6511 54.0065 22.5178 53.7273 20.3359 53.7273C18.2996 53.7273 16.3001 53.9939 14.3374 54.5273C12.3728 55.0606 10.4935 55.8121 8.69957 56.7818C7.68139 57.3151 6.70006 57.2909 5.75557 56.7091C4.80915 56.1273 4.33594 55.2788 4.33594 54.1636V19.1091C4.33594 18.5758 4.46976 18.0667 4.73739 17.5818C5.00309 17.097 5.4026 16.7333 5.93594 16.4909C8.16624 15.3273 10.4935 14.4545 12.9178 13.8727C15.342 13.2909 17.8147 13 20.3359 13C23.1481 13 25.9001 13.3636 28.5919 14.0909C31.2819 14.8182 33.8632 15.9091 36.3359 17.3636C38.8087 15.9091 41.391 14.8182 44.0828 14.0909C46.7728 13.3636 49.5238 13 52.3359 13C54.8572 13 57.3299 13.2909 59.7541 13.8727C62.1784 14.4545 64.5056 15.3273 66.7359 16.4909C67.2693 16.7333 67.6698 17.097 67.9374 17.5818C68.2031 18.0667 68.3359 18.5758 68.3359 19.1091V54.1636C68.3359 55.2788 67.8637 56.1273 66.9192 56.7091C65.9728 57.2909 64.9905 57.3151 63.9723 56.7818C62.1784 55.8121 60.2991 55.0606 58.3345 54.5273C56.3718 53.9939 54.3723 53.7273 52.3359 53.7273C50.1541 53.7273 48.0208 54.0065 45.9359 54.5651C43.8511 55.1217 41.8632 55.9576 39.9723 57.0727C39.439 57.3636 38.8698 57.5944 38.2647 57.7651C37.6576 57.9338 37.0147 58.0182 36.3359 58.0182Z" fill="#104763"/>
</svg>
