<svg width="32" height="32" viewBox="0 0 32 32" fill="none" xmlns="http://www.w3.org/2000/svg">
<mask id="mask0_680_6110" style="mask-type:alpha" maskUnits="userSpaceOnUse" x="0" y="0" width="32" height="32">
<rect width="32" height="32" fill="#D9D9D9"/>
</mask>
<g mask="url(#mask0_680_6110)">
<path d="M23.9987 24.0006C24.5543 24.0006 25.0263 23.806 25.4147 23.4167C25.804 23.0282 25.9987 22.5562 25.9987 22.0006C25.9987 21.4451 25.804 20.9731 25.4147 20.5846C25.0263 20.1953 24.5543 20.0006 23.9987 20.0006C23.4431 20.0006 22.9711 20.1953 22.5827 20.5846C22.1934 20.9731 21.9987 21.4451 21.9987 22.0006C21.9987 22.5562 22.1934 23.0282 22.5827 23.4167C22.9711 23.806 23.4431 24.0006 23.9987 24.0006ZM23.9987 28.0006C24.6654 28.0006 25.2876 27.8451 25.8654 27.534C26.4431 27.2229 26.9209 26.7895 27.2987 26.234C26.7876 25.9229 26.2543 25.6953 25.6987 25.5513C25.1431 25.4064 24.5765 25.334 23.9987 25.334C23.4209 25.334 22.8543 25.4064 22.2987 25.5513C21.7431 25.6953 21.2098 25.9229 20.6987 26.234C21.0765 26.7895 21.5543 27.2229 22.132 27.534C22.7098 27.8451 23.332 28.0006 23.9987 28.0006ZM11.9987 10.6673H19.9987V8.00065C19.9987 6.88954 19.6098 5.9451 18.832 5.16732C18.0543 4.38954 17.1098 4.00065 15.9987 4.00065C14.8876 4.00065 13.9431 4.38954 13.1654 5.16732C12.3876 5.9451 11.9987 6.88954 11.9987 8.00065V10.6673ZM16.332 29.334H7.9987C7.26536 29.334 6.63781 29.0731 6.11603 28.5513C5.59336 28.0286 5.33203 27.4006 5.33203 26.6673V13.334C5.33203 12.6007 5.59336 11.9727 6.11603 11.45C6.63781 10.9282 7.26536 10.6673 7.9987 10.6673H9.33203V8.00065C9.33203 6.15621 9.98225 4.58376 11.2827 3.28332C12.5823 1.98376 14.1543 1.33398 15.9987 1.33398C17.8431 1.33398 19.4156 1.98376 20.716 3.28332C22.0156 4.58376 22.6654 6.15621 22.6654 8.00065V10.6673H23.9987C24.732 10.6673 25.36 10.9282 25.8827 11.45C26.4045 11.9727 26.6654 12.6007 26.6654 13.334V15.0673C26.2654 14.934 25.8485 14.834 25.4147 14.7673C24.9818 14.7006 24.5098 14.6673 23.9987 14.6673V13.334H7.9987V26.6673H15.0654C15.2431 27.2006 15.4209 27.662 15.5987 28.0513C15.7765 28.4398 16.0209 28.8673 16.332 29.334ZM23.9987 30.6673C22.1543 30.6673 20.5823 30.0175 19.2827 28.718C17.9823 27.4175 17.332 25.8451 17.332 24.0006C17.332 22.1562 17.9823 20.5838 19.2827 19.2833C20.5823 17.9838 22.1543 17.334 23.9987 17.334C25.8431 17.334 27.4156 17.9838 28.716 19.2833C30.0156 20.5838 30.6654 22.1562 30.6654 24.0006C30.6654 25.8451 30.0156 27.4175 28.716 28.718C27.4156 30.0175 25.8431 30.6673 23.9987 30.6673Z" fill="#F7F7FB"/>
</g>
</svg>
