<svg width="72" height="73" viewBox="0 0 72 73" fill="none" xmlns="http://www.w3.org/2000/svg">
<circle opacity="0.3" cx="50" cy="21.3633" r="20" fill="#02A2A2"/>
<mask id="mask0_680_5889" style="mask-type:alpha" maskUnits="userSpaceOnUse" x="0" y="0" width="72" height="73">
<rect y="0.363281" width="72" height="72" fill="#D9D9D9"/>
</mask>
<g mask="url(#mask0_680_5889)">
<path d="M37.5011 13.8633C37.5011 15.5133 36.9141 16.9253 35.7401 18.0993C34.5641 19.2753 33.1511 19.8633 31.5011 19.8633C30.8511 19.8633 30.2511 19.7753 29.7011 19.5993C29.1511 19.4253 28.6011 19.1383 28.0511 18.7383C26.8511 19.1383 25.8881 19.8633 25.1621 20.9133C24.4381 21.9633 24.0761 23.1133 24.0761 24.3633H59.5511C60.4511 24.3633 61.1881 24.7133 61.7621 25.4133C62.3381 26.1133 62.5761 26.9133 62.4761 27.8133L60.3761 42.8133C60.2761 43.5633 59.9391 44.1753 59.3651 44.6493C58.7891 45.1253 58.1261 45.3633 57.3761 45.3633H45.3011V39.3633H54.8261C55.0761 37.8633 55.2891 36.3633 55.4651 34.8633C55.6391 33.3633 55.8511 31.8633 56.1011 30.3633H15.9011C16.1511 31.8633 16.3641 33.3633 16.5401 34.8633C16.7141 36.3633 16.9261 37.8633 17.1761 39.3633H26.7011V45.3633H14.6261C13.8761 45.3633 13.2141 45.1253 12.6401 44.6493C12.0641 44.1753 11.7261 43.5633 11.6261 42.8133L9.5261 27.8133C9.4261 26.9133 9.6641 26.1133 10.2401 25.4133C10.8141 24.7133 11.5511 24.3633 12.4511 24.3633H18.0011C18.0011 21.9133 18.6761 19.6883 20.0261 17.6883C21.3761 15.6883 23.2011 14.2133 25.5011 13.2633C25.6511 11.7133 26.3011 10.4253 27.4511 9.39928C28.6011 8.37528 29.9511 7.86328 31.5011 7.86328C33.1511 7.86328 34.5641 8.45028 35.7401 9.62428C36.9141 10.8003 37.5011 12.2133 37.5011 13.8633ZM29.3261 57.3633H42.6761L44.4011 39.3633H27.6011L29.3261 57.3633ZM45.3011 63.3633H26.7011C25.9011 63.3633 25.2391 63.1133 24.7151 62.6133C24.1891 62.1133 23.8761 61.4633 23.7761 60.6633L21.7511 39.9633C21.5511 38.2133 22.0511 36.6753 23.2511 35.3493C24.4511 34.0253 25.9261 33.3633 27.6761 33.3633H44.3261C46.0761 33.3633 47.5511 34.0253 48.7511 35.3493C49.9511 36.6753 50.4511 38.2133 50.2511 39.9633L48.2261 60.6633C48.1261 61.4633 47.8141 62.1133 47.2901 62.6133C46.7641 63.1133 46.1011 63.3633 45.3011 63.3633Z" fill="#3E4753"/>
</g>
</svg>
