<svg width="80" height="73" viewBox="0 0 80 73" fill="none" xmlns="http://www.w3.org/2000/svg">
<ellipse opacity="0.3" cx="56.3233" cy="21.3345" rx="21.7647" ry="20.0377" fill="#02A2A2"/>
<mask id="mask0_680_5868" style="mask-type:alpha" maskUnits="userSpaceOnUse" x="0" y="0" width="80" height="73">
<rect x="0.824219" y="0.294922" width="78.353" height="72.1356" fill="#D9D9D9"/>
</mask>
<g mask="url(#mask0_680_5868)">
<path d="M20.4122 66.4196C18.6166 66.4196 17.08 65.8315 15.8025 64.6553C14.5227 63.4771 13.8828 62.0614 13.8828 60.4083V12.3179C13.8828 10.6648 14.5227 9.24917 15.8025 8.07096C17.08 6.89475 18.6166 6.30664 20.4122 6.30664H43.8365C44.7071 6.30664 45.5374 6.45692 46.3275 6.75749C47.1154 7.05805 47.8086 7.48385 48.4071 8.03489L64.2409 22.6123C64.8394 23.1633 65.3019 23.8015 65.6284 24.5269C65.9549 25.2543 66.1181 26.0187 66.1181 26.8202V36.3631H59.5887V27.3462H46.5299C45.6049 27.3462 44.8301 27.0576 44.2054 26.4806C43.5786 25.9055 43.2652 25.1921 43.2652 24.3405V12.3179H20.4122V60.4083H40.0005V66.4196H20.4122ZM60.5681 43.9524L64.0777 47.1835L51.4269 58.7552V61.9112H54.8549L67.5056 50.3394L70.9336 53.4953L57.8747 65.5179C57.5483 65.8185 57.1804 66.0439 56.7713 66.1942C56.3643 66.3445 55.9431 66.4196 55.5078 66.4196H48.1622C47.7269 66.4196 47.3461 66.2693 47.0196 65.9688C46.6931 65.6682 46.5299 65.3176 46.5299 64.9168V58.1541C46.5299 57.7533 46.6115 57.3656 46.7747 56.9909C46.938 56.6142 47.1828 56.2756 47.5093 55.975L60.5681 43.9524ZM70.9336 53.4953L60.5681 43.9524L65.3019 39.5942C65.9005 39.0432 66.6622 38.7677 67.5872 38.7677C68.5122 38.7677 69.274 39.0432 69.8725 39.5942L75.6674 44.9292C76.2659 45.4803 76.5652 46.1816 76.5652 47.0332C76.5652 47.8848 76.2659 48.5861 75.6674 49.1371L70.9336 53.4953Z" fill="#3E4753"/>
</g>
</svg>
