<svg width="73" height="72" viewBox="0 0 73 72" fill="none" xmlns="http://www.w3.org/2000/svg">
<circle opacity="0.3" cx="51.668" cy="21" r="20" fill="#DB578A"/>
<path d="M28.1346 32.816C28.7569 31.5716 29.4013 30.3716 30.068 29.216C30.7346 28.0605 31.468 26.9049 32.268 25.7494L28.5346 25.016L22.9346 30.616L28.1346 32.816ZM60.268 14.4827C57.1569 14.5716 53.8351 15.4827 50.3026 17.216C46.7684 18.9494 43.5569 21.2605 40.668 24.1494C38.8013 26.016 37.1346 28.016 35.668 30.1494C34.2013 32.2827 33.1124 34.2827 32.4013 36.1494L40.0013 43.6827C41.868 42.9716 43.868 41.8827 46.0013 40.416C48.1346 38.9494 50.1346 37.2827 52.0013 35.416C54.8902 32.5271 57.2013 29.3271 58.9346 25.816C60.668 22.3049 61.5791 18.9938 61.668 15.8827C61.668 15.7049 61.6351 15.5271 61.5693 15.3494C61.5018 15.1716 61.4013 15.016 61.268 14.8827C61.1346 14.7494 60.9791 14.6489 60.8013 14.5814C60.6235 14.5156 60.4457 14.4827 60.268 14.4827ZM45.6013 30.4827C44.5791 29.4605 44.068 28.2045 44.068 26.7147C44.068 25.2267 44.5791 23.9716 45.6013 22.9494C46.6235 21.9271 47.8902 21.416 49.4013 21.416C50.9124 21.416 52.1791 21.9271 53.2013 22.9494C54.2235 23.9716 54.7346 25.2267 54.7346 26.7147C54.7346 28.2045 54.2235 29.4605 53.2013 30.4827C52.1791 31.5049 50.9124 32.016 49.4013 32.016C47.8902 32.016 46.6235 31.5049 45.6013 30.4827ZM43.3346 47.9494L45.5346 53.216L51.1346 47.616L50.4013 43.8827C49.2457 44.6827 48.0902 45.4045 46.9346 46.048C45.7791 46.6934 44.5791 47.3271 43.3346 47.9494ZM66.7346 12.3494C67.0902 17.2383 66.2902 22.0045 64.3346 26.648C62.3791 31.2934 59.2902 35.7271 55.068 39.9494L56.4013 46.5494C56.5791 47.4383 56.5346 48.3049 56.268 49.1494C56.0013 49.9938 55.5569 50.7271 54.9346 51.3494L46.5346 59.7494C45.868 60.416 45.068 60.6711 44.1346 60.5147C43.2013 60.36 42.5569 59.8383 42.2013 58.9494L38.1346 49.416L26.7346 38.016L17.2013 33.9494C16.3124 33.5938 15.7791 32.9494 15.6013 32.016C15.4235 31.0827 15.668 30.2827 16.3346 29.616L24.7346 21.216C25.3569 20.5938 26.1017 20.1494 26.9693 19.8827C27.8351 19.616 28.7124 19.5716 29.6013 19.7494L36.2013 21.0827C40.4235 16.8605 44.8573 13.7716 49.5026 11.816C54.1462 9.86048 58.9124 9.06048 63.8013 9.41604C64.1569 9.46048 64.5124 9.56004 64.868 9.7147C65.2235 9.87115 65.5346 10.0827 65.8013 10.3494C66.068 10.616 66.2786 10.9271 66.4333 11.2827C66.5897 11.6383 66.6902 11.9938 66.7346 12.3494ZM19.668 45.1494C21.2235 43.5938 23.1231 42.8045 25.3666 42.7814C27.612 42.76 29.5124 43.5271 31.068 45.0827C32.6235 46.6383 33.3897 48.5378 33.3666 50.7814C33.3453 53.0267 32.5569 54.9271 31.0013 56.4827C29.8902 57.5938 28.0351 58.5494 25.436 59.3494C22.8351 60.1494 19.2457 60.8605 14.668 61.4827C15.2902 56.9049 16.0013 53.3156 16.8013 50.7147C17.6013 48.1156 18.5569 46.2605 19.668 45.1494ZM23.468 48.8827C23.0235 49.3271 22.5791 50.1387 22.1346 51.3174C21.6902 52.4943 21.3791 53.6827 21.2013 54.8827C22.4013 54.7049 23.5906 54.4054 24.7693 53.984C25.9462 53.5609 26.7569 53.1271 27.2013 52.6827C27.7346 52.1494 28.0235 51.5049 28.068 50.7494C28.1124 49.9938 27.868 49.3494 27.3346 48.816C26.8013 48.2827 26.1569 48.0267 25.4013 48.048C24.6457 48.0711 24.0013 48.3494 23.468 48.8827Z" fill="#104763"/>
</svg>
