<svg width="32" height="32" viewBox="0 0 32 32" fill="none" xmlns="http://www.w3.org/2000/svg">
<mask id="mask0_680_6101" style="mask-type:alpha" maskUnits="userSpaceOnUse" x="0" y="0" width="32" height="32">
<rect width="32" height="32" fill="#D9D9D9"/>
</mask>
<g mask="url(#mask0_680_6101)">
<path d="M14.5654 16.9993L15.9987 15.8993L17.3987 16.9993C17.6431 17.1993 17.9098 17.2047 18.1987 17.0153C18.4876 16.8269 18.5765 16.5771 18.4654 16.266L17.8987 14.466L19.4987 13.1993C19.7431 12.9993 19.8156 12.7491 19.716 12.4487C19.6156 12.1491 19.4098 11.9993 19.0987 11.9993H17.1987L16.632 10.2327C16.5209 9.92157 16.3098 9.76602 15.9987 9.76602C15.6876 9.76602 15.4765 9.92157 15.3654 10.2327L14.7987 11.9993H12.8987C12.5876 11.9993 12.3765 12.1549 12.2654 12.466C12.1543 12.7771 12.2209 13.0216 12.4654 13.1993L14.0654 14.466L13.4987 16.266C13.3876 16.5771 13.4707 16.8269 13.748 17.0153C14.0263 17.2047 14.2987 17.1993 14.5654 16.9993ZM9.76536 30.066C9.32092 30.2216 8.91514 30.166 8.54803 29.8993C8.18181 29.6327 7.9987 29.2771 7.9987 28.8327V20.366C7.15425 19.4327 6.4987 18.366 6.03203 17.166C5.56536 15.966 5.33203 14.6882 5.33203 13.3327C5.33203 10.3549 6.36536 7.83268 8.43203 5.76602C10.4987 3.69935 13.0209 2.66602 15.9987 2.66602C18.9765 2.66602 21.4987 3.69935 23.5654 5.76602C25.632 7.83268 26.6654 10.3549 26.6654 13.3327C26.6654 14.6882 26.432 15.966 25.9654 17.166C25.4987 18.366 24.8431 19.4327 23.9987 20.366V28.8327C23.9987 29.2771 23.8151 29.6327 23.448 29.8993C23.0818 30.166 22.6765 30.2216 22.232 30.066L15.9987 27.9993L9.76536 30.066ZM15.9987 21.3327C18.2209 21.3327 20.1098 20.5549 21.6654 18.9993C23.2209 17.4438 23.9987 15.5549 23.9987 13.3327C23.9987 11.1105 23.2209 9.22157 21.6654 7.66602C20.1098 6.11046 18.2209 5.33268 15.9987 5.33268C13.7765 5.33268 11.8876 6.11046 10.332 7.66602C8.77648 9.22157 7.9987 11.1105 7.9987 13.3327C7.9987 15.5549 8.77648 17.4438 10.332 18.9993C11.8876 20.5549 13.7765 21.3327 15.9987 21.3327ZM10.6654 26.6993L15.9987 25.3327L21.332 26.6993V22.566C20.5543 23.0105 19.7156 23.3602 18.816 23.6153C17.9156 23.8713 16.9765 23.9993 15.9987 23.9993C15.0209 23.9993 14.0818 23.8713 13.1814 23.6153C12.2818 23.3602 11.4431 23.0105 10.6654 22.566V26.6993Z" fill="#F7F7FB"/>
</g>
</svg>
