<svg width="32" height="32" viewBox="0 0 32 32" fill="none" xmlns="http://www.w3.org/2000/svg">
<path d="M10.4013 2.66669H21.6013C25.868 2.66669 29.3346 6.13335 29.3346 10.4V21.6C29.3346 23.651 28.5199 25.618 27.0696 27.0683C25.6193 28.5186 23.6523 29.3334 21.6013 29.3334H10.4013C6.13464 29.3334 2.66797 25.8667 2.66797 21.6V10.4C2.66797 8.34901 3.48273 6.38201 4.93301 4.93173C6.38329 3.48145 8.35029 2.66669 10.4013 2.66669ZM10.1346 5.33335C8.8616 5.33335 7.6407 5.83907 6.74052 6.73924C5.84035 7.63942 5.33464 8.86031 5.33464 10.1334V21.8667C5.33464 24.52 7.4813 26.6667 10.1346 26.6667H21.868C23.141 26.6667 24.3619 26.161 25.2621 25.2608C26.1623 24.3606 26.668 23.1397 26.668 21.8667V10.1334C26.668 7.48002 24.5213 5.33335 21.868 5.33335H10.1346ZM23.0013 7.33335C23.4433 7.33335 23.8673 7.50895 24.1798 7.82151C24.4924 8.13407 24.668 8.55799 24.668 9.00002C24.668 9.44205 24.4924 9.86597 24.1798 10.1785C23.8673 10.4911 23.4433 10.6667 23.0013 10.6667C22.5593 10.6667 22.1354 10.4911 21.8228 10.1785C21.5102 9.86597 21.3346 9.44205 21.3346 9.00002C21.3346 8.55799 21.5102 8.13407 21.8228 7.82151C22.1354 7.50895 22.5593 7.33335 23.0013 7.33335ZM16.0013 9.33335C17.7694 9.33335 19.4651 10.0357 20.7153 11.286C21.9656 12.5362 22.668 14.2319 22.668 16C22.668 17.7681 21.9656 19.4638 20.7153 20.7141C19.4651 21.9643 17.7694 22.6667 16.0013 22.6667C14.2332 22.6667 12.5375 21.9643 11.2873 20.7141C10.037 19.4638 9.33464 17.7681 9.33464 16C9.33464 14.2319 10.037 12.5362 11.2873 11.286C12.5375 10.0357 14.2332 9.33335 16.0013 9.33335ZM16.0013 12C14.9404 12 13.923 12.4214 13.1729 13.1716C12.4227 13.9217 12.0013 14.9392 12.0013 16C12.0013 17.0609 12.4227 18.0783 13.1729 18.8284C13.923 19.5786 14.9404 20 16.0013 20C17.0622 20 18.0796 19.5786 18.8297 18.8284C19.5799 18.0783 20.0013 17.0609 20.0013 16C20.0013 14.9392 19.5799 13.9217 18.8297 13.1716C18.0796 12.4214 17.0622 12 16.0013 12Z" fill="white"/>
</svg>
