<svg width="28" height="28" viewBox="0 0 28 28" fill="none" xmlns="http://www.w3.org/2000/svg">
<path d="M15.3346 20.766C15.5124 20.766 15.6791 20.738 15.8346 20.682C15.9902 20.6269 16.1346 20.5327 16.268 20.3993L20.0013 16.666C20.2457 16.4216 20.4404 16.1327 20.5853 15.7993C20.7293 15.466 20.8013 15.1105 20.8013 14.7327C20.8013 13.9771 20.5346 13.3327 20.0013 12.7993C19.468 12.266 18.8235 11.9993 18.068 11.9993C17.6457 11.9993 17.2293 12.1216 16.8186 12.366C16.4071 12.6105 15.9124 13.0216 15.3346 13.5993C14.668 12.9771 14.1457 12.5549 13.768 12.3327C13.3902 12.1105 13.0013 11.9993 12.6013 11.9993C11.8457 11.9993 11.2013 12.266 10.668 12.7993C10.1346 13.3327 9.86797 13.9771 9.86797 14.7327C9.86797 15.1105 9.93997 15.466 10.084 15.7993C10.2289 16.1327 10.4235 16.4216 10.668 16.666L14.4013 20.3993C14.5346 20.5327 14.6791 20.6269 14.8346 20.682C14.9902 20.738 15.1569 20.766 15.3346 20.766ZM15.1346 27.3327C14.7569 27.3327 14.4013 27.2602 14.068 27.1153C13.7346 26.9713 13.4457 26.7771 13.2013 26.5327L1.46797 14.7993C1.22352 14.5549 1.0293 14.266 0.885302 13.9327C0.740413 13.5993 0.667969 13.2438 0.667969 12.866V3.33268C0.667969 2.59935 0.929302 1.97135 1.45197 1.44868C1.97375 0.926904 2.6013 0.666016 3.33464 0.666016H12.868C13.2457 0.666016 13.6013 0.738016 13.9346 0.882016C14.268 1.0269 14.5569 1.22157 14.8013 1.46602L26.5346 13.2327C27.0457 13.7438 27.3013 14.3713 27.3013 15.1153C27.3013 15.8602 27.0457 16.4882 26.5346 16.9993L17.0013 26.5327C16.7569 26.7771 16.4737 26.9713 16.152 27.1153C15.8293 27.2602 15.4902 27.3327 15.1346 27.3327ZM15.1013 24.666L24.6346 15.1327L12.868 3.33268H3.33464V12.866L15.1013 24.666ZM6.66797 8.66602C7.22352 8.66602 7.69552 8.47135 8.08397 8.08202C8.4733 7.69357 8.66797 7.22157 8.66797 6.66602C8.66797 6.11046 8.4733 5.63846 8.08397 5.25002C7.69552 4.86068 7.22352 4.66602 6.66797 4.66602C6.11241 4.66602 5.64041 4.86068 5.25197 5.25002C4.86264 5.63846 4.66797 6.11046 4.66797 6.66602C4.66797 7.22157 4.86264 7.69357 5.25197 8.08202C5.64041 8.47135 6.11241 8.66602 6.66797 8.66602Z" fill="#F7F7FB"/>
</svg>
