<svg width="35" height="36" viewBox="0 0 35 36" fill="none" xmlns="http://www.w3.org/2000/svg">
<mask id="mask0_680_6068" style="mask-type:alpha" maskUnits="userSpaceOnUse" x="0" y="0" width="35" height="36">
<rect x="0.386719" y="0.720703" width="34.56" height="34.56" fill="#D9D9D9"/>
</mask>
<g mask="url(#mask0_680_6068)">
<path d="M14.427 30.961C13.203 30.961 12.147 30.535 11.259 29.683C10.371 28.831 9.86703 27.805 9.74703 26.605C8.30703 26.413 7.10703 25.777 6.14703 24.697C5.18703 23.617 4.70703 22.345 4.70703 20.881C4.70703 20.377 4.77303 19.879 4.90503 19.387C5.03703 18.895 5.23503 18.433 5.49903 18.001C5.23503 17.569 5.03703 17.113 4.90503 16.633C4.77303 16.153 4.70703 15.649 4.70703 15.121C4.70703 13.657 5.18703 12.391 6.14703 11.323C7.10703 10.255 8.29503 9.62502 9.71103 9.43302C9.78303 8.20902 10.275 7.17102 11.187 6.31902C12.099 5.46702 13.179 5.04102 14.427 5.04102C15.051 5.04102 15.633 5.16102 16.173 5.40102C16.713 5.64102 17.211 5.96502 17.667 6.37302C18.099 5.96502 18.591 5.64102 19.143 5.40102C19.695 5.16102 20.283 5.04102 20.907 5.04102C22.155 5.04102 23.229 5.46102 24.129 6.30102C25.029 7.14102 25.515 8.17302 25.587 9.39702C27.003 9.58902 28.197 10.225 29.169 11.305C30.141 12.385 30.627 13.657 30.627 15.121C30.627 15.649 30.561 16.153 30.429 16.633C30.297 17.113 30.099 17.569 29.835 18.001C30.099 18.433 30.297 18.895 30.429 19.387C30.561 19.879 30.627 20.377 30.627 20.881C30.627 22.369 30.141 23.647 29.169 24.715C28.197 25.783 26.991 26.413 25.551 26.605C25.431 27.805 24.933 28.831 24.057 29.683C23.181 30.535 22.131 30.961 20.907 30.961C20.307 30.961 19.725 30.847 19.161 30.619C18.597 30.391 18.099 30.073 17.667 29.665C17.211 30.073 16.707 30.391 16.155 30.619C15.603 30.847 15.027 30.961 14.427 30.961ZM19.107 9.72102V26.281C19.107 26.785 19.281 27.211 19.629 27.559C19.977 27.907 20.403 28.081 20.907 28.081C21.387 28.081 21.801 27.889 22.149 27.505C22.497 27.121 22.683 26.689 22.707 26.209C22.203 26.017 21.741 25.759 21.321 25.435C20.901 25.111 20.523 24.721 20.187 24.265C19.947 23.929 19.857 23.569 19.917 23.185C19.977 22.801 20.175 22.489 20.511 22.249C20.847 22.009 21.207 21.919 21.591 21.979C21.975 22.039 22.287 22.237 22.527 22.573C22.791 22.957 23.127 23.251 23.535 23.455C23.943 23.659 24.387 23.761 24.867 23.761C25.659 23.761 26.337 23.479 26.901 22.915C27.465 22.351 27.747 21.673 27.747 20.881C27.747 20.761 27.741 20.641 27.729 20.521C27.717 20.401 27.687 20.281 27.639 20.161C27.231 20.401 26.793 20.581 26.325 20.701C25.857 20.821 25.371 20.881 24.867 20.881C24.459 20.881 24.117 20.743 23.841 20.467C23.565 20.191 23.427 19.849 23.427 19.441C23.427 19.033 23.565 18.691 23.841 18.415C24.117 18.139 24.459 18.001 24.867 18.001C25.659 18.001 26.337 17.719 26.901 17.155C27.465 16.591 27.747 15.913 27.747 15.121C27.747 14.329 27.465 13.657 26.901 13.105C26.337 12.553 25.659 12.265 24.867 12.241C24.603 12.673 24.261 13.051 23.841 13.375C23.421 13.699 22.959 13.957 22.455 14.149C22.071 14.293 21.699 14.281 21.339 14.113C20.979 13.945 20.739 13.669 20.619 13.285C20.499 12.901 20.517 12.529 20.673 12.169C20.829 11.809 21.099 11.569 21.483 11.449C21.843 11.329 22.137 11.113 22.365 10.801C22.593 10.489 22.707 10.129 22.707 9.72102C22.707 9.21702 22.533 8.79102 22.185 8.44302C21.837 8.09502 21.411 7.92102 20.907 7.92102C20.403 7.92102 19.977 8.09502 19.629 8.44302C19.281 8.79102 19.107 9.21702 19.107 9.72102ZM16.227 26.281V9.72102C16.227 9.21702 16.053 8.79102 15.705 8.44302C15.357 8.09502 14.931 7.92102 14.427 7.92102C13.923 7.92102 13.497 8.09502 13.149 8.44302C12.801 8.79102 12.627 9.21702 12.627 9.72102C12.627 10.105 12.735 10.459 12.951 10.783C13.167 11.107 13.455 11.329 13.815 11.449C14.199 11.569 14.475 11.809 14.643 12.169C14.811 12.529 14.835 12.901 14.715 13.285C14.571 13.669 14.319 13.945 13.959 14.113C13.599 14.281 13.227 14.293 12.843 14.149C12.339 13.957 11.877 13.699 11.457 13.375C11.037 13.051 10.695 12.673 10.431 12.241C9.66303 12.265 8.99703 12.559 8.43303 13.123C7.86903 13.687 7.58703 14.353 7.58703 15.121C7.58703 15.913 7.86903 16.591 8.43303 17.155C8.99703 17.719 9.67503 18.001 10.467 18.001C10.875 18.001 11.217 18.139 11.493 18.415C11.769 18.691 11.907 19.033 11.907 19.441C11.907 19.849 11.769 20.191 11.493 20.467C11.217 20.743 10.875 20.881 10.467 20.881C9.96303 20.881 9.47703 20.821 9.00903 20.701C8.54103 20.581 8.10303 20.401 7.69503 20.161C7.64703 20.281 7.61703 20.401 7.60503 20.521C7.59303 20.641 7.58703 20.761 7.58703 20.881C7.58703 21.673 7.86903 22.351 8.43303 22.915C8.99703 23.479 9.67503 23.761 10.467 23.761C10.947 23.761 11.391 23.659 11.799 23.455C12.207 23.251 12.543 22.957 12.807 22.573C13.047 22.237 13.359 22.039 13.743 21.979C14.127 21.919 14.487 22.009 14.823 22.249C15.159 22.489 15.357 22.801 15.417 23.185C15.477 23.569 15.387 23.929 15.147 24.265C14.811 24.721 14.427 25.117 13.995 25.453C13.563 25.789 13.095 26.053 12.591 26.245C12.615 26.725 12.807 27.151 13.167 27.523C13.527 27.895 13.947 28.081 14.427 28.081C14.931 28.081 15.357 27.907 15.705 27.559C16.053 27.211 16.227 26.785 16.227 26.281Z" fill="#3E4753"/>
</g>
</svg>
