<svg width="30" height="30" viewBox="0 0 30 30" fill="none" xmlns="http://www.w3.org/2000/svg">
<path d="M20.3736 13.5616C20.9736 13.5616 21.4836 13.3516 21.9036 12.9316C22.3236 12.5116 22.5336 12.0016 22.5336 11.4016C22.5336 10.8016 22.3236 10.2916 21.9036 9.87156C21.4836 9.45156 20.9736 9.24156 20.3736 9.24156C19.7736 9.24156 19.2636 9.45156 18.8436 9.87156C18.4236 10.2916 18.2136 10.8016 18.2136 11.4016C18.2136 12.0016 18.4236 12.5116 18.8436 12.9316C19.2636 13.3516 19.7736 13.5616 20.3736 13.5616ZM10.2936 13.5616C10.8936 13.5616 11.4036 13.3516 11.8236 12.9316C12.2436 12.5116 12.4536 12.0016 12.4536 11.4016C12.4536 10.8016 12.2436 10.2916 11.8236 9.87156C11.4036 9.45156 10.8936 9.24156 10.2936 9.24156C9.69359 9.24156 9.18359 9.45156 8.76359 9.87156C8.34359 10.2916 8.13359 10.8016 8.13359 11.4016C8.13359 12.0016 8.34359 12.5116 8.76359 12.9316C9.18359 13.3516 9.69359 13.5616 10.2936 13.5616ZM15.3336 22.9216C16.9656 22.9216 18.4476 22.4596 19.7796 21.5356C21.1116 20.6116 22.0776 19.3936 22.6776 17.8816H7.98959C8.58959 19.3936 9.55559 20.6116 10.8876 21.5356C12.2196 22.4596 13.7016 22.9216 15.3336 22.9216ZM15.3336 29.4016C13.3416 29.4016 11.4696 29.0236 9.71759 28.2676C7.96559 27.5116 6.44159 26.4856 5.14559 25.1896C3.84959 23.8936 2.82359 22.3696 2.06759 20.6176C1.31159 18.8656 0.933594 16.9936 0.933594 15.0016C0.933594 13.0096 1.31159 11.1376 2.06759 9.38556C2.82359 7.63356 3.84959 6.10956 5.14559 4.81356C6.44159 3.51756 7.96559 2.49156 9.71759 1.73556C11.4696 0.979562 13.3416 0.601562 15.3336 0.601562C17.3256 0.601562 19.1976 0.979562 20.9496 1.73556C22.7016 2.49156 24.2256 3.51756 25.5216 4.81356C26.8176 6.10956 27.8436 7.63356 28.5996 9.38556C29.3556 11.1376 29.7336 13.0096 29.7336 15.0016C29.7336 16.9936 29.3556 18.8656 28.5996 20.6176C27.8436 22.3696 26.8176 23.8936 25.5216 25.1896C24.2256 26.4856 22.7016 27.5116 20.9496 28.2676C19.1976 29.0236 17.3256 29.4016 15.3336 29.4016ZM15.3336 26.5216C18.5496 26.5216 21.2736 25.4056 23.5056 23.1736C25.7376 20.9416 26.8536 18.2176 26.8536 15.0016C26.8536 11.7856 25.7376 9.06156 23.5056 6.82956C21.2736 4.59756 18.5496 3.48156 15.3336 3.48156C12.1176 3.48156 9.39359 4.59756 7.16159 6.82956C4.92959 9.06156 3.81359 11.7856 3.81359 15.0016C3.81359 18.2176 4.92959 20.9416 7.16159 23.1736C9.39359 25.4056 12.1176 26.5216 15.3336 26.5216Z" fill="#3E4753"/>
</svg>
