<svg xmlns="http://www.w3.org/2000/svg" width="27.262" height="25.805" viewBox="0 0 27.262 25.805">
  <g id="Grupo_1" data-name="Grupo 1" transform="translate(-2.961 -0.621)">
    <circle id="Elipse_1" data-name="Elipse 1" cx="8.889" cy="8.889" r="8.889" transform="translate(12.445 0.621)" fill="#db578a" opacity="0.3"/>
    <path id="Trazado_1" data-name="Trazado 1" d="M16.857,17.271l-1.452-.652a.289.289,0,0,1,0-.533l1.452-.652.652-1.452a.289.289,0,0,1,.533,0l.652,1.452,1.452.652a.289.289,0,0,1,0,.533l-1.452.652-.652,1.452a.289.289,0,0,1-.533,0Zm-3.941-6.726L10.665,9.508a.289.289,0,0,1,0-.533l2.252-1.037,1.037-2.252a.289.289,0,0,1,.533,0l1.037,2.252,2.252,1.037a.289.289,0,0,1,0,.533l-2.252,1.037L14.487,12.8a.289.289,0,0,1-.533,0Zm-9.956,14.7V21.686A2.268,2.268,0,0,1,3.658,20a2.306,2.306,0,0,1,1.673-.681H9.213a2.285,2.285,0,0,1,1.126.3,2.387,2.387,0,0,1,.859.8,6.109,6.109,0,0,0,2.119,1.807A5.747,5.747,0,0,0,16,22.871a5.868,5.868,0,0,0,4.8-2.459,3.021,3.021,0,0,1,.9-.8,2.154,2.154,0,0,1,1.082-.3h3.881a2.328,2.328,0,0,1,2.37,2.37v3.556a1.166,1.166,0,0,1-1.185,1.185H21.924a1.166,1.166,0,0,1-1.185-1.185V23.73A8.058,8.058,0,0,1,16,25.241a7.919,7.919,0,0,1-2.489-.4A8.351,8.351,0,0,1,11.257,23.7v1.541a1.164,1.164,0,0,1-1.185,1.185H4.146a1.166,1.166,0,0,1-1.185-1.185ZM6.516,18.13A3.429,3.429,0,0,1,4,17.093a3.6,3.6,0,0,1,0-5.052,3.455,3.455,0,0,1,2.519-1.022,3.49,3.49,0,0,1,3.556,3.556A3.455,3.455,0,0,1,9.05,17.093,3.417,3.417,0,0,1,6.516,18.13Zm18.963,0a3.541,3.541,0,0,1-3.556-3.555,3.417,3.417,0,0,1,1.037-2.534,3.548,3.548,0,0,1,6.074,2.534,3.455,3.455,0,0,1-1.022,2.519A3.417,3.417,0,0,1,25.479,18.13Z" fill="#104763"/>
  </g>
</svg>
