<svg width="64" height="64" viewBox="0 0 64 64" fill="none" xmlns="http://www.w3.org/2000/svg">
<path d="M33.9307 34.4667L30.6641 33C30.3974 32.8667 30.2641 32.6667 30.2641 32.4C30.2641 32.1333 30.3974 31.9333 30.6641 31.8L33.9307 30.3333L35.3974 27.0667C35.5307 26.8 35.7307 26.6667 35.9974 26.6667C36.2641 26.6667 36.4641 26.8 36.5974 27.0667L38.0641 30.3333L41.3307 31.8C41.5974 31.9333 41.7307 32.1333 41.7307 32.4C41.7307 32.6667 41.5974 32.8667 41.3307 33L38.0641 34.4667L36.5974 37.7333C36.4641 38 36.2641 38.1333 35.9974 38.1333C35.7307 38.1333 35.5307 38 35.3974 37.7333L33.9307 34.4667ZM25.0641 19.3333L19.9974 17C19.7307 16.8667 19.5974 16.6667 19.5974 16.4C19.5974 16.1333 19.7307 15.9333 19.9974 15.8L25.0641 13.4667L27.3974 8.4C27.5307 8.13333 27.7307 8 27.9974 8C28.2641 8 28.4641 8.13333 28.5974 8.4L30.9307 13.4667L35.9974 15.8C36.2641 15.9333 36.3974 16.1333 36.3974 16.4C36.3974 16.6667 36.2641 16.8667 35.9974 17L30.9307 19.3333L28.5974 24.4C28.4641 24.6667 28.2641 24.8 27.9974 24.8C27.7307 24.8 27.5307 24.6667 27.3974 24.4L25.0641 19.3333ZM2.66406 52.4V44.4C2.66406 42.8889 3.18673 41.6222 4.23206 40.6C5.27562 39.5778 6.53073 39.0667 7.9974 39.0667H16.7307C17.6196 39.0667 18.4641 39.2889 19.2641 39.7333C20.0641 40.1778 20.7085 40.7778 21.1974 41.5333C22.4863 43.2667 24.0756 44.6222 25.9654 45.6C27.8534 46.5778 29.8641 47.0667 31.9974 47.0667C34.1752 47.0667 36.209 46.5778 38.0987 45.6C39.9867 44.6222 41.553 43.2667 42.7974 41.5333C43.3752 40.7778 44.0525 40.1778 44.8294 39.7333C45.6081 39.2889 46.4196 39.0667 47.2641 39.0667H55.9974C57.5085 39.0667 58.7752 39.5778 59.7974 40.6C60.8196 41.6222 61.3307 42.8889 61.3307 44.4V52.4C61.3307 53.1556 61.0747 53.7884 60.5627 54.2987C60.0525 54.8107 59.4196 55.0667 58.6641 55.0667H45.3307C44.5752 55.0667 43.9423 54.8107 43.4321 54.2987C42.9201 53.7884 42.6641 53.1556 42.6641 52.4V49C41.1085 50.1111 39.4312 50.9556 37.6321 51.5333C35.8312 52.1111 33.953 52.4 31.9974 52.4C30.0863 52.4 28.2196 52.1004 26.3974 51.5013C24.5752 50.9004 22.8863 50.0444 21.3307 48.9333V52.4C21.3307 53.1556 21.0756 53.7884 20.5654 54.2987C20.0534 54.8107 19.4196 55.0667 18.6641 55.0667H5.33073C4.57517 55.0667 3.94228 54.8107 3.43206 54.2987C2.92006 53.7884 2.66406 53.1556 2.66406 52.4ZM10.6641 36.4C8.44184 36.4 6.55295 35.6222 4.9974 34.0667C3.44184 32.5111 2.66406 30.6222 2.66406 28.4C2.66406 26.1333 3.44184 24.2329 4.9974 22.6987C6.55295 21.1662 8.44184 20.4 10.6641 20.4C12.9307 20.4 14.8312 21.1662 16.3654 22.6987C17.8978 24.2329 18.6641 26.1333 18.6641 28.4C18.6641 30.6222 17.8978 32.5111 16.3654 34.0667C14.8312 35.6222 12.9307 36.4 10.6641 36.4ZM53.3307 36.4C51.1085 36.4 49.2196 35.6222 47.6641 34.0667C46.1085 32.5111 45.3307 30.6222 45.3307 28.4C45.3307 26.1333 46.1085 24.2329 47.6641 22.6987C49.2196 21.1662 51.1085 20.4 53.3307 20.4C55.5974 20.4 57.4978 21.1662 59.0321 22.6987C60.5645 24.2329 61.3307 26.1333 61.3307 28.4C61.3307 30.6222 60.5645 32.5111 59.0321 34.0667C57.4978 35.6222 55.5974 36.4 53.3307 36.4Z" fill="#104763"/>
</svg>
