<svg width="72" height="72" viewBox="0 0 72 72" fill="none" xmlns="http://www.w3.org/2000/svg">
<circle opacity="0.3" cx="48" cy="21" r="20" fill="#DB578A"/>
<path d="M37.9327 38.4667L34.666 37C34.3993 36.8667 34.266 36.6667 34.266 36.4C34.266 36.1333 34.3993 35.9333 34.666 35.8L37.9327 34.3333L39.3993 31.0667C39.5327 30.8 39.7327 30.6667 39.9993 30.6667C40.266 30.6667 40.466 30.8 40.5994 31.0667L42.066 34.3333L45.3327 35.8C45.5994 35.9333 45.7327 36.1333 45.7327 36.4C45.7327 36.6667 45.5994 36.8667 45.3327 37L42.066 38.4667L40.5994 41.7333C40.466 42 40.266 42.1333 39.9993 42.1333C39.7327 42.1333 39.5327 42 39.3993 41.7333L37.9327 38.4667ZM29.066 23.3333L23.9993 21C23.7327 20.8667 23.5993 20.6667 23.5993 20.4C23.5993 20.1333 23.7327 19.9333 23.9993 19.8L29.066 17.4667L31.3993 12.4C31.5327 12.1333 31.7327 12 31.9993 12C32.266 12 32.466 12.1333 32.5994 12.4L34.9327 17.4667L39.9993 19.8C40.266 19.9333 40.3993 20.1333 40.3993 20.4C40.3993 20.6667 40.266 20.8667 39.9993 21L34.9327 23.3333L32.5994 28.4C32.466 28.6667 32.266 28.8 31.9993 28.8C31.7327 28.8 31.5327 28.6667 31.3993 28.4L29.066 23.3333ZM6.66602 56.4V48.4C6.66602 46.8889 7.18868 45.6222 8.23402 44.6C9.27757 43.5778 10.5327 43.0667 11.9993 43.0667H20.7327C21.6216 43.0667 22.466 43.2889 23.266 43.7333C24.066 44.1778 24.7105 44.7778 25.1993 45.5333C26.4882 47.2667 28.0776 48.6222 29.9673 49.6C31.8553 50.5778 33.866 51.0667 35.9993 51.0667C38.1771 51.0667 40.2109 50.5778 42.1007 49.6C43.9887 48.6222 45.5549 47.2667 46.7993 45.5333C47.3771 44.7778 48.0545 44.1778 48.8314 43.7333C49.61 43.2889 50.4216 43.0667 51.266 43.0667H59.9994C61.5105 43.0667 62.7771 43.5778 63.7993 44.6C64.8216 45.6222 65.3327 46.8889 65.3327 48.4V56.4C65.3327 57.1556 65.0767 57.7884 64.5647 58.2987C64.0545 58.8107 63.4216 59.0667 62.666 59.0667H49.3327C48.5771 59.0667 47.9442 58.8107 47.434 58.2987C46.922 57.7884 46.666 57.1556 46.666 56.4V53C45.1105 54.1111 43.4331 54.9556 41.634 55.5333C39.8331 56.1111 37.9549 56.4 35.9993 56.4C34.0882 56.4 32.2216 56.1004 30.3993 55.5013C28.5771 54.9004 26.8882 54.0444 25.3327 52.9333V56.4C25.3327 57.1556 25.0776 57.7884 24.5673 58.2987C24.0553 58.8107 23.4216 59.0667 22.666 59.0667H9.33268C8.57713 59.0667 7.94424 58.8107 7.43402 58.2987C6.92202 57.7884 6.66602 57.1556 6.66602 56.4ZM14.666 40.4C12.4438 40.4 10.5549 39.6222 8.99935 38.0667C7.44379 36.5111 6.66602 34.6222 6.66602 32.4C6.66602 30.1333 7.44379 28.2329 8.99935 26.6987C10.5549 25.1662 12.4438 24.4 14.666 24.4C16.9327 24.4 18.8331 25.1662 20.3673 26.6987C21.8998 28.2329 22.666 30.1333 22.666 32.4C22.666 34.6222 21.8998 36.5111 20.3673 38.0667C18.8331 39.6222 16.9327 40.4 14.666 40.4ZM57.3327 40.4C55.1105 40.4 53.2216 39.6222 51.666 38.0667C50.1105 36.5111 49.3327 34.6222 49.3327 32.4C49.3327 30.1333 50.1105 28.2329 51.666 26.6987C53.2216 25.1662 55.1105 24.4 57.3327 24.4C59.5994 24.4 61.4998 25.1662 63.034 26.6987C64.5665 28.2329 65.3327 30.1333 65.3327 32.4C65.3327 34.6222 64.5665 36.5111 63.034 38.0667C61.4998 39.6222 59.5994 40.4 57.3327 40.4Z" fill="#104763"/>
</svg>
