<svg width="48" height="48" viewBox="0 0 48 48" fill="none" xmlns="http://www.w3.org/2000/svg">
<mask id="mask0_1131_953" style="mask-type:alpha" maskUnits="userSpaceOnUse" x="0" y="0" width="48" height="48">
<rect width="48" height="48" fill="#D9D9D9"/>
</mask>
<g mask="url(#mask0_1131_953)">
<path d="M24 34C24.5667 34 25.042 33.808 25.426 33.424C25.8087 33.0413 26 32.5667 26 32V26H32.05C32.6167 26 33.0833 25.808 33.45 25.424C33.8167 25.0413 34 24.5667 34 24C34 23.4333 33.808 22.958 33.424 22.574C33.0413 22.1913 32.5667 22 32 22H26V15.95C26 15.3833 25.8087 14.9167 25.426 14.55C25.042 14.1833 24.5667 14 24 14C23.4333 14 22.9587 14.1913 22.576 14.574C22.192 14.958 22 15.4333 22 16V22H15.95C15.3833 22 14.9167 22.1913 14.55 22.574C14.1833 22.958 14 23.4333 14 24C14 24.5667 14.1913 25.0413 14.574 25.424C14.958 25.808 15.4333 26 16 26H22V32.05C22 32.6167 22.192 33.0833 22.576 33.45C22.9587 33.8167 23.4333 34 24 34ZM24 44C21.2333 44 18.6333 43.4747 16.2 42.424C13.7667 41.3747 11.65 39.95 9.85 38.15C8.05 36.35 6.62533 34.2333 5.576 31.8C4.52533 29.3667 4 26.7667 4 24C4 21.2333 4.52533 18.6333 5.576 16.2C6.62533 13.7667 8.05 11.65 9.85 9.85C11.65 8.05 13.7667 6.62467 16.2 5.574C18.6333 4.52467 21.2333 4 24 4C26.7667 4 29.3667 4.52467 31.8 5.574C34.2333 6.62467 36.35 8.05 38.15 9.85C39.95 11.65 41.3747 13.7667 42.424 16.2C43.4747 18.6333 44 21.2333 44 24C44 26.7667 43.4747 29.3667 42.424 31.8C41.3747 34.2333 39.95 36.35 38.15 38.15C36.35 39.95 34.2333 41.3747 31.8 42.424C29.3667 43.4747 26.7667 44 24 44Z" fill="#02A2A2"/>
</g>
</svg>
