<svg xmlns="http://www.w3.org/2000/svg" xmlns:xlink="http://www.w3.org/1999/xlink" width="49.083" height="62" viewBox="0 0 49.083 62">
  <defs>
    <clipPath id="clip-path">
      <rect id="Rectángulo_1" data-name="Rectángulo 1" width="49.083" height="62" transform="translate(0.458)" fill="#fff"/>
    </clipPath>
  </defs>
  <g id="panambi-logo" transform="translate(-0.458)" clip-path="url(#clip-path)">
    <path id="Trazado_1" data-name="Trazado 1" d="M25.164,24.752l-1.142-.524-1.214,7.14.286.333a8.4,8.4,0,0,1,1.261,2.38L21.713,31.2v2.57a14.28,14.28,0,0,0,3.451,8.878,6.331,6.331,0,0,0,3.261,1.618,8.281,8.281,0,0,0,1.357,0h.143a5.926,5.926,0,0,0,3.546-1.38,8.687,8.687,0,0,0,2.38-7.735C35.779,34.653,34.993,29.25,25.164,24.752Zm.381,12.21a1.047,1.047,0,0,0,.809-.785,6.973,6.973,0,0,0-1.5-5.331l.643-3.784c7.783,3.927,8.354,8.33,8.354,8.4a6.855,6.855,0,0,1-1.785,6.14,3.95,3.95,0,0,1-2.214.833,4.546,4.546,0,0,1-3.4-1.19,9.306,9.306,0,0,1-2.38-4.76,1.595,1.595,0,0,0,1.547.476Z" fill="#14648c"/>
    <path id="Trazado_2" data-name="Trazado 2" d="M21.261,31.154l-3.475,1.88A7.879,7.879,0,0,1,19.714,31.3l.357-.309,1.214-7.14-1.262.119c-10.686,1.047-13.209,5.9-13.447,6.426a8.735,8.735,0,0,0-.309,8.092A5.783,5.783,0,0,0,9.1,40.865a6.9,6.9,0,0,0,1.476.428,6.68,6.68,0,0,0,1.19,0,6.662,6.662,0,0,0,2.38-.547c4-1.761,6.093-7.14,6.188-7.4Zm-6.117,3.284a1.19,1.19,0,0,0,.524,1.047,1.737,1.737,0,0,0,1.547,0,9.52,9.52,0,0,1-3.808,3.737,4.5,4.5,0,0,1-3.594,0A3.665,3.665,0,0,1,7.981,37.7a6.854,6.854,0,0,1,.333-6.4s2-4,10.639-5.069l-.643,3.784A7.14,7.14,0,0,0,15.145,34.439Z" fill="#14648c"/>
    <path id="Trazado_3" data-name="Trazado 3" d="M48.678,7.853a31.2,31.2,0,0,1-5-.476l-1.142-.19A19.421,19.421,0,0,0,32.3,8.9a12.542,12.542,0,0,1,5.331-2.737A.952.952,0,0,0,38.348,5a1.072,1.072,0,0,0-.428-.6,1.119,1.119,0,0,0-.857-.119,16.113,16.113,0,0,0-10.734,9.306,25.35,25.35,0,0,0-2.19,7.14V21.3l7.307,5.093a7.14,7.14,0,0,0,2.38.881h1.047a14.28,14.28,0,0,0,13.043-9.687A26.038,26.038,0,0,0,49.7,8.71V7.83Zm-.976,1.9a25.037,25.037,0,0,1-1.595,7.14,12.21,12.21,0,0,1-11.424,8.544,4.569,4.569,0,0,1-2.237-.643l-6.283-4.355a14.613,14.613,0,0,1,6.9-9.83,17.707,17.707,0,0,1,9.116-1.5l1.119.167A38.887,38.887,0,0,0,47.7,9.757Z" fill="#14648c"/>
    <path id="Trazado_4" data-name="Trazado 4" d="M9.646,23.3a6.152,6.152,0,0,0,1,.286,5.355,5.355,0,0,0,1.214,0,5.314,5.314,0,0,0,1.4-.071L21.118,21.3a1.1,1.1,0,0,0,.476,0h.238v-.214A.879.879,0,0,0,22,20.753a26.176,26.176,0,0,0,.262-7.5A16.089,16.089,0,0,0,15.12.951a.976.976,0,0,0-1.333.286.881.881,0,0,0,0,.738.928.928,0,0,0,.262.452,12.733,12.733,0,0,1,4.26,4.522l-.286-.262A19.469,19.469,0,0,0,8.98,1.737L7.861,1.523a28.275,28.275,0,0,1-4.9-1.19l-.9-.286-.333.9a26.942,26.942,0,0,0-1.238,9A14.28,14.28,0,0,0,9.646,23.3ZM3.268,2.427A35.7,35.7,0,0,0,7.5,3.4l1.119.214a17.779,17.779,0,0,1,8.116,4.4,14.566,14.566,0,0,1,3.308,11.567l-7.354,2.047a4.188,4.188,0,0,1-2.38-.119A12.233,12.233,0,0,1,2.363,9.853,25.49,25.49,0,0,1,3.268,2.427Z" fill="#14648c"/>
    <path id="Trazado_5" data-name="Trazado 5" d="M28.353,50.028a.737.737,0,0,0-.6,0,.714.714,0,0,0-.4.428l-2.19,5.522a.738.738,0,0,0,0,.6.786.786,0,0,0,.428.4.643.643,0,0,0,.309,0,.714.714,0,0,0,.69-.476l2.166-5.474a.738.738,0,0,0,0-.6A.785.785,0,0,0,28.353,50.028Z" fill="#14648c"/>
    <path id="Trazado_6" data-name="Trazado 6" d="M26.305,45.983a.785.785,0,0,0-.429-.4.737.737,0,0,0-.595,0,.714.714,0,0,0-.4.428L20.4,57.407a.785.785,0,0,0,.452,1,.6.6,0,0,0,.286,0,.738.738,0,0,0,.714-.5l4.4-11.377A.738.738,0,0,0,26.305,45.983Z" fill="#14648c"/>
    <path id="Trazado_7" data-name="Trazado 7" d="M8.195,44.72a.833.833,0,0,0-.428-.428.857.857,0,0,0-.6,0,.785.785,0,0,0-.4.428l-2.38,6.021a.857.857,0,0,0,0,.595.785.785,0,0,0,.428.4.643.643,0,0,0,.309,0,.714.714,0,0,0,.69-.5l2.38-6A.738.738,0,0,0,8.195,44.72Z" fill="#14648c"/>
    <path id="Trazado_8" data-name="Trazado 8" d="M13.5,43.221a.857.857,0,0,0-.6,0,.88.88,0,0,0-.428.452l-4.522,11.9a.857.857,0,0,0,0,.6.928.928,0,0,0,.428.428h.309a.833.833,0,0,0,.714-.5l4.522-11.9a.857.857,0,0,0,0-.6A.785.785,0,0,0,13.5,43.221Z" fill="#14648c"/>
  </g>
</svg>
