<svg width="26" height="30" viewBox="0 0 26 30" fill="none" xmlns="http://www.w3.org/2000/svg">
<path d="M0.0390625 26.5216V20.7616C0.0390625 18.7696 0.741062 17.0716 2.14506 15.6676C3.54906 14.2636 5.24706 13.5616 7.23906 13.5616H22.6831C23.5951 13.5616 24.3691 13.8736 25.0051 14.4976C25.6411 15.1216 25.9591 15.8896 25.9591 16.8016C25.9591 17.5456 25.7311 18.2116 25.2751 18.7996C24.8191 19.3876 24.2431 19.7776 23.5471 19.9696L20.1991 20.9416V26.5216C20.1991 27.0256 20.0851 27.4816 19.8571 27.8896C19.6291 28.2976 19.3231 28.6336 18.9391 28.8976C18.5551 29.1616 18.1351 29.3236 17.6791 29.3836C17.2231 29.4436 16.7551 29.3776 16.2751 29.1856L9.47106 26.5216H0.0390625ZM17.3191 22.2016H9.21906C9.05106 22.2016 8.92506 22.2496 8.84106 22.3456C8.75706 22.4416 8.70306 22.5496 8.67906 22.6696C8.65506 22.7896 8.67306 22.9036 8.73306 23.0116C8.79306 23.1196 8.89506 23.1976 9.03906 23.2456L17.3191 26.5216V22.2016ZM2.91906 23.6416H5.94306C5.89506 23.4976 5.85906 23.3536 5.83506 23.2096C5.81106 23.0656 5.79906 22.9096 5.79906 22.7416C5.79906 21.8056 6.13506 21.0016 6.80706 20.3296C7.47906 19.6576 8.28306 19.3216 9.21906 19.3216H15.0871L22.7911 17.1976C22.9111 17.1496 22.9951 17.0896 23.0431 17.0176C23.0911 16.9456 23.1031 16.8616 23.0791 16.7656C23.0551 16.6696 23.0131 16.5916 22.9531 16.5316C22.8931 16.4716 22.8031 16.4416 22.6831 16.4416H7.23906C6.03906 16.4416 5.01906 16.8616 4.17906 17.7016C3.33906 18.5416 2.91906 19.5616 2.91906 20.7616V23.6416ZM10.1191 12.1216C8.53506 12.1216 7.17906 11.5576 6.05106 10.4296C4.92306 9.30156 4.35906 7.94556 4.35906 6.36156C4.35906 4.77756 4.92306 3.42156 6.05106 2.29356C7.17906 1.16556 8.53506 0.601562 10.1191 0.601562C11.7031 0.601562 13.0591 1.16556 14.1871 2.29356C15.3151 3.42156 15.8791 4.77756 15.8791 6.36156C15.8791 7.94556 15.3151 9.30156 14.1871 10.4296C13.0591 11.5576 11.7031 12.1216 10.1191 12.1216ZM10.1191 9.24156C10.9111 9.24156 11.5891 8.95956 12.1531 8.39556C12.7171 7.83156 12.9991 7.15356 12.9991 6.36156C12.9991 5.56956 12.7171 4.89156 12.1531 4.32756C11.5891 3.76356 10.9111 3.48156 10.1191 3.48156C9.32706 3.48156 8.64906 3.76356 8.08506 4.32756C7.52106 4.89156 7.23906 5.56956 7.23906 6.36156C7.23906 7.15356 7.52106 7.83156 8.08506 8.39556C8.64906 8.95956 9.32706 9.24156 10.1191 9.24156Z" fill="#3E4753"/>
</svg>
