<svg width="32" height="32" viewBox="0 0 32 32" fill="none" xmlns="http://www.w3.org/2000/svg">
<mask id="mask0_680_4114" style="mask-type:alpha" maskUnits="userSpaceOnUse" x="0" y="0" width="32" height="32">
<rect width="32" height="32" fill="#D9D9D9"/>
</mask>
<g mask="url(#mask0_680_4114)">
<path d="M8 29.3327V23.5993C6.73333 22.4438 5.75022 21.0936 5.05067 19.5487C4.35022 18.0047 4 16.3771 4 14.666C4 11.3327 5.16667 8.49935 7.5 6.16602C9.83333 3.83268 12.6667 2.66602 16 2.66602C18.7778 2.66602 21.2391 3.4829 23.384 5.11668C25.528 6.74957 26.9222 8.87713 27.5667 11.4993L29.3 18.3327C29.4111 18.7549 29.3333 19.1385 29.0667 19.4833C28.8 19.8273 28.4444 19.9993 28 19.9993H25.3333V23.9993C25.3333 24.7327 25.0724 25.3607 24.5507 25.8834C24.028 26.4051 23.4 26.666 22.6667 26.666H20V29.3327H17.3333V23.9993H22.6667V17.3327H26.2667L25 12.166C24.4889 10.1438 23.4 8.49935 21.7333 7.23268C20.0667 5.96602 18.1556 5.33268 16 5.33268C13.4222 5.33268 11.2222 6.23268 9.4 8.03268C7.57778 9.83268 6.66667 12.0216 6.66667 14.5993C6.66667 15.9327 6.93911 17.1993 7.484 18.3993C8.028 19.5993 8.8 20.666 9.8 21.5993L10.6667 22.3993V29.3327H8ZM14.6667 19.9993H17.3333L17.5333 18.3327C17.7111 18.266 17.8724 18.1882 18.0173 18.0993C18.1613 18.0105 18.2889 17.9105 18.4 17.7993L19.9333 18.466L21.2667 16.1993L19.9333 15.1993C19.9778 15.0216 20 14.8438 20 14.666C20 14.4882 19.9778 14.3105 19.9333 14.1327L21.2667 13.1327L19.9333 10.866L18.4 11.5327C18.2889 11.4216 18.1613 11.3216 18.0173 11.2327C17.8724 11.1438 17.7111 11.066 17.5333 10.9993L17.3333 9.33268H14.6667L14.4667 10.9993C14.2889 11.066 14.128 11.1438 13.984 11.2327C13.8391 11.3216 13.7111 11.4216 13.6 11.5327L12.0667 10.866L10.7333 13.1327L12.0667 14.1327C12.0222 14.3105 12 14.4882 12 14.666C12 14.8438 12.0222 15.0216 12.0667 15.1993L10.7333 16.1993L12.0667 18.466L13.6 17.7993C13.7111 17.9105 13.8391 18.0105 13.984 18.0993C14.128 18.1882 14.2889 18.266 14.4667 18.3327L14.6667 19.9993ZM16 16.666C15.4444 16.666 14.9724 16.4713 14.584 16.082C14.1947 15.6936 14 15.2216 14 14.666C14 14.1105 14.1947 13.6385 14.584 13.25C14.9724 12.8607 15.4444 12.666 16 12.666C16.5556 12.666 17.0276 12.8607 17.416 13.25C17.8053 13.6385 18 14.1105 18 14.666C18 15.2216 17.8053 15.6936 17.416 16.082C17.0276 16.4713 16.5556 16.666 16 16.666Z" fill="#F7F7FB"/>
</g>
</svg>
