<svg width="29" height="28" viewBox="0 0 29 28" fill="none" xmlns="http://www.w3.org/2000/svg">
<path d="M20.332 14.8993C20.1765 14.8993 20.0267 14.8771 19.8827 14.8327C19.7378 14.7882 19.6098 14.7105 19.4987 14.5993C17.5876 12.866 15.9156 11.194 14.4827 9.58335C13.0489 7.97179 12.332 6.46602 12.332 5.06602C12.332 3.82157 12.7543 2.77713 13.5987 1.93268C14.4431 1.08824 15.4876 0.666016 16.732 0.666016C17.4431 0.666016 18.1098 0.815793 18.732 1.11535C19.3543 1.41579 19.8876 1.82157 20.332 2.33268C20.7765 1.82157 21.3098 1.41579 21.932 1.11535C22.5543 0.815793 23.2209 0.666016 23.932 0.666016C25.1765 0.666016 26.2209 1.08824 27.0654 1.93268C27.9098 2.77713 28.332 3.82157 28.332 5.06602C28.332 6.46602 27.6156 7.97179 26.1827 9.58335C24.7489 11.194 23.0765 12.866 21.1654 14.5993C21.0543 14.7105 20.9263 14.7882 20.7814 14.8327C20.6374 14.8771 20.4876 14.8993 20.332 14.8993ZM20.332 11.7327C21.6431 10.4882 22.86 9.24913 23.9827 8.01535C25.1045 6.78246 25.6654 5.79935 25.6654 5.06602C25.6654 4.5549 25.5045 4.13802 25.1827 3.81535C24.86 3.49357 24.4431 3.33268 23.932 3.33268C23.6209 3.33268 23.3267 3.39357 23.0494 3.51535C22.7711 3.63802 22.532 3.82157 22.332 4.06602L20.332 6.46602L18.332 4.06602C18.132 3.82157 17.8934 3.63802 17.616 3.51535C17.3378 3.39357 17.0431 3.33268 16.732 3.33268C16.2209 3.33268 15.8045 3.49357 15.4827 3.81535C15.16 4.13802 14.9987 4.5549 14.9987 5.06602C14.9987 5.79935 15.5596 6.78246 16.6814 8.01535C17.804 9.24913 19.0209 10.4882 20.332 11.7327ZM17.5987 25.1993L25.532 22.7327C25.4209 22.5327 25.26 22.3607 25.0494 22.2167C24.8378 22.0718 24.5987 21.9993 24.332 21.9993H17.5987C16.9987 21.9993 16.5209 21.9771 16.1654 21.9327C15.8098 21.8882 15.4431 21.7993 15.0654 21.666L13.1654 21.0327C12.8098 20.9216 12.5543 20.6993 12.3987 20.366C12.2431 20.0327 12.2209 19.6882 12.332 19.3327C12.4431 18.9771 12.66 18.7158 12.9827 18.5487C13.3045 18.3825 13.6431 18.3549 13.9987 18.466L15.3987 18.9327C15.7765 19.0438 16.2045 19.1327 16.6827 19.1993C17.16 19.266 17.8098 19.3105 18.632 19.3327H18.9987C18.9987 19.0882 18.9267 18.8549 18.7827 18.6327C18.6378 18.4105 18.4654 18.266 18.2654 18.1993L10.4654 15.3327H8.33203V22.666L17.5987 25.1993ZM16.8987 27.7993L8.33203 25.3993C8.15425 25.9771 7.80448 26.4438 7.2827 26.7993C6.76003 27.1549 6.22092 27.3327 5.66536 27.3327H2.9987C2.26536 27.3327 1.63781 27.0718 1.11603 26.55C0.593365 26.0273 0.332031 25.3993 0.332031 24.666V15.3327C0.332031 14.5993 0.593365 13.9713 1.11603 13.4487C1.63781 12.9269 2.26536 12.666 2.9987 12.666H10.4654C10.6209 12.666 10.7765 12.6825 10.932 12.7153C11.0876 12.7491 11.232 12.7882 11.3654 12.8327L19.1987 15.7327C19.932 15.9993 20.5267 16.466 20.9827 17.1327C21.4378 17.7993 21.6654 18.5327 21.6654 19.3327H24.332C25.4431 19.3327 26.3876 19.6993 27.1654 20.4327C27.9431 21.166 28.332 22.1327 28.332 23.3327C28.332 23.8216 28.204 24.2051 27.948 24.4833C27.6929 24.7607 27.2987 24.9882 26.7654 25.166L18.432 27.766C18.1876 27.8549 17.932 27.8993 17.6654 27.8993C17.3987 27.8993 17.1431 27.866 16.8987 27.7993ZM2.9987 24.666H5.66536V15.3327H2.9987V24.666Z" fill="#F7F7FB"/>
</svg>
