<svg width="32" height="32" viewBox="0 0 32 32" fill="none" xmlns="http://www.w3.org/2000/svg">
<path d="M9.95216 6.24416L8.51216 1.92416L10.5282 1.27616L11.9682 5.56016L9.95216 6.24416ZM14.9202 4.48016V0.160156H17.0802V4.48016H14.9202ZM22.0482 6.24416L20.0322 5.56016L21.4722 1.27616L23.4882 1.96016L22.0482 6.24416ZM1.81616 31.8402L1.38416 28.9962L8.98016 27.8442C9.24416 27.7962 9.47816 27.6822 9.68216 27.5022C9.88616 27.3222 10.0362 27.1002 10.1322 26.8362L11.3562 23.0202C11.4762 22.6842 11.4762 22.3602 11.3562 22.0482C11.2362 21.7362 11.0202 21.4962 10.7082 21.3282L9.52016 25.0722L6.78416 24.2082L9.95216 14.2002C10.0002 14.0562 10.0242 13.9002 10.0242 13.7322C10.0242 13.5642 10.0002 13.4082 9.95216 13.2642L5.12816 22.3362C4.74416 23.0322 4.21016 23.5902 3.52616 24.0102C2.84216 24.4302 2.10416 24.6402 1.31216 24.6402H0.160156V21.7602H1.31216C1.57616 21.7602 1.82216 21.6942 2.05016 21.5622C2.27816 21.4302 2.45216 21.2442 2.57216 21.0042L8.94416 8.98016L10.7442 9.98816C11.6322 10.4922 12.2622 11.2182 12.6342 12.1662C13.0062 13.1142 13.0362 14.0802 12.7242 15.0642L11.6082 18.5922C12.6642 19.0002 13.4262 19.7202 13.8942 20.7522C14.3622 21.7842 14.4282 22.8402 14.0922 23.9202L12.8682 27.7362C12.6042 28.5042 12.1662 29.1582 11.5542 29.6982C10.9422 30.2382 10.2282 30.5682 9.41216 30.6882L1.81616 31.8402ZM30.1842 31.8402L22.5882 30.6882C21.7722 30.5682 21.0582 30.2382 20.4462 29.6982C19.8342 29.1582 19.3962 28.5042 19.1322 27.7362L17.9082 23.9202C17.5722 22.8402 17.6382 21.7842 18.1062 20.7522C18.5742 19.7202 19.3362 19.0002 20.3922 18.5922L19.2762 15.0642C18.9642 14.0802 18.9942 13.1142 19.3662 12.1662C19.7382 11.2182 20.3682 10.4922 21.2562 9.98816L23.0562 8.98016L29.4282 21.0042C29.5482 21.2442 29.7222 21.4302 29.9502 21.5622C30.1782 21.6942 30.4242 21.7602 30.6882 21.7602H31.8402V24.6402H30.6882C29.8962 24.6402 29.1582 24.4302 28.4742 24.0102C27.7902 23.5902 27.2562 23.0322 26.8722 22.3362L22.0482 13.2642C22.0002 13.4082 21.9762 13.5642 21.9762 13.7322C21.9762 13.9002 22.0002 14.0562 22.0482 14.2002L25.2162 24.2082L22.4802 25.0722L21.2922 21.3282C20.9802 21.4962 20.7642 21.7362 20.6442 22.0482C20.5242 22.3602 20.5242 22.6842 20.6442 23.0202L21.8682 26.8362C21.9642 27.1002 22.1142 27.3222 22.3182 27.5022C22.5222 27.6822 22.7562 27.7962 23.0202 27.8442L30.6162 28.9962L30.1842 31.8402Z" fill="#3E4753"/>
</svg>
