<svg width="32" height="32" viewBox="0 0 32 32" fill="none" xmlns="http://www.w3.org/2000/svg">
<path d="M23.868 14.5334C19.6013 12 12.468 11.7334 8.4013 13C7.73464 13.2 7.06797 12.8 6.86797 12.2C6.66797 11.5334 7.06797 10.8667 7.66797 10.6667C12.4013 9.26669 20.2013 9.53335 25.1346 12.4667C25.7346 12.8 25.9346 13.6 25.6013 14.2C25.268 14.6667 24.468 14.8667 23.868 14.5334ZM23.7346 18.2667C23.4013 18.7334 22.8013 18.9334 22.3346 18.6C18.7346 16.4 13.268 15.7334 9.06797 17.0667C8.53464 17.2 7.93464 16.9334 7.8013 16.4C7.66797 15.8667 7.93464 15.2667 8.46797 15.1334C13.3346 13.6667 19.3346 14.4 23.468 16.9334C23.868 17.1334 24.068 17.8 23.7346 18.2667ZM22.1346 21.9334C21.868 22.3334 21.4013 22.4667 21.0013 22.2C17.868 20.2667 13.9346 19.8667 9.26797 20.9334C8.8013 21.0667 8.4013 20.7334 8.26797 20.3334C8.13464 19.8667 8.46797 19.4667 8.86797 19.3334C13.9346 18.2 18.3346 18.6667 21.8013 20.8C22.268 21 22.3346 21.5334 22.1346 21.9334ZM16.0013 2.66669C14.2503 2.66669 12.5165 3.01156 10.8989 3.68163C9.28118 4.35169 7.81133 5.33382 6.57321 6.57193C4.07273 9.07242 2.66797 12.4638 2.66797 16C2.66797 19.5362 4.07273 22.9276 6.57321 25.4281C7.81133 26.6662 9.28118 27.6484 10.8989 28.3184C12.5165 28.9885 14.2503 29.3334 16.0013 29.3334C19.5375 29.3334 22.9289 27.9286 25.4294 25.4281C27.9299 22.9276 29.3346 19.5362 29.3346 16C29.3346 14.2491 28.9898 12.5152 28.3197 10.8976C27.6496 9.2799 26.6675 7.81004 25.4294 6.57193C24.1913 5.33382 22.7214 4.35169 21.1037 3.68163C19.4861 3.01156 17.7523 2.66669 16.0013 2.66669Z" fill="white"/>
</svg>
