<svg width="25" height="25" viewBox="0 0 25 25" fill="none" xmlns="http://www.w3.org/2000/svg">
<path d="M18.4 11.2047C15.2 9.30469 9.85 9.10469 6.8 10.0547C6.3 10.2047 5.8 9.90469 5.65 9.45469C5.5 8.95469 5.8 8.45469 6.25 8.30469C9.8 7.25469 15.65 7.45469 19.35 9.65469C19.8 9.90469 19.95 10.5047 19.7 10.9547C19.45 11.3047 18.85 11.4547 18.4 11.2047ZM18.3 14.0047C18.05 14.3547 17.6 14.5047 17.25 14.2547C14.55 12.6047 10.45 12.1047 7.3 13.1047C6.9 13.2047 6.45 13.0047 6.35 12.6047C6.25 12.2047 6.45 11.7547 6.85 11.6547C10.5 10.5547 15 11.1047 18.1 13.0047C18.4 13.1547 18.55 13.6547 18.3 14.0047ZM17.1 16.7547C16.9 17.0547 16.55 17.1547 16.25 16.9547C13.9 15.5047 10.95 15.2047 7.45 16.0047C7.1 16.1047 6.8 15.8547 6.7 15.5547C6.6 15.2047 6.85 14.9047 7.15 14.8047C10.95 13.9547 14.25 14.3047 16.85 15.9047C17.2 16.0547 17.25 16.4547 17.1 16.7547ZM12.5 2.30469C11.1868 2.30469 9.88642 2.56335 8.67317 3.06589C7.45991 3.56844 6.35752 4.30503 5.42893 5.23362C3.55357 7.10898 2.5 9.65252 2.5 12.3047C2.5 14.9569 3.55357 17.5004 5.42893 19.3758C6.35752 20.3043 7.45991 21.0409 8.67317 21.5435C9.88642 22.046 11.1868 22.3047 12.5 22.3047C15.1522 22.3047 17.6957 21.2511 19.5711 19.3758C21.4464 17.5004 22.5 14.9569 22.5 12.3047C22.5 10.9915 22.2413 9.69111 21.7388 8.47785C21.2362 7.2646 20.4997 6.16221 19.5711 5.23362C18.6425 4.30503 17.5401 3.56844 16.3268 3.06589C15.1136 2.56335 13.8132 2.30469 12.5 2.30469Z" fill="#593E82"/>
</svg>
