<svg width="24" height="28" viewBox="0 0 24 28" fill="none" xmlns="http://www.w3.org/2000/svg">
<path d="M12.1696 0.689188C13.6239 0.666687 15.0698 0.680021 16.514 0.666687C16.6015 2.36761 17.2132 4.1002 18.4583 5.30277C19.7009 6.53533 21.4585 7.09953 23.1686 7.29037V11.7648C21.566 11.7123 19.9559 11.3789 18.5017 10.6889C17.8683 10.4022 17.2783 10.033 16.7007 9.6555C16.6932 12.9023 16.7141 16.145 16.6799 19.3785C16.5932 20.9319 16.0807 22.4779 15.1773 23.7579C13.7239 25.8889 11.2013 27.2781 8.61029 27.3214C7.02104 27.4123 5.43346 26.9789 4.07922 26.1805C1.83493 24.8571 0.255681 22.4345 0.0256689 19.8344C-0.00330365 19.2837 -0.00775276 18.732 0.0123348 18.181C0.212345 16.0667 1.25823 14.0441 2.88165 12.6682C4.72175 11.0656 7.29939 10.3022 9.71285 10.7539C9.73535 12.3998 9.66952 14.0441 9.66952 15.69C8.56696 15.3333 7.27855 15.4333 6.31517 16.1025C5.61033 16.5668 5.07769 17.25 4.79926 18.0468C4.56924 18.6101 4.63508 19.236 4.64841 19.8344C4.9126 21.6578 6.66602 23.1904 8.53779 23.0245C9.77869 23.0112 10.9679 22.2912 11.6146 21.237C11.8238 20.8678 12.058 20.4902 12.0705 20.0561C12.1796 18.0685 12.1363 16.0892 12.1496 14.1016C12.1588 9.62216 12.1363 5.15526 12.1705 0.690022L12.1696 0.689188Z" fill="white"/>
</svg>
