<svg width="32" height="32" viewBox="0 0 32 32" fill="none" xmlns="http://www.w3.org/2000/svg">
<path d="M16.1696 2.68852C17.6239 2.66602 19.0698 2.67935 20.514 2.66602C20.6015 4.36694 21.2132 6.09953 22.4583 7.3021C23.7009 8.53466 25.4585 9.09886 27.1686 9.2897V13.7641C25.566 13.7116 23.9559 13.3783 22.5017 12.6882C21.8683 12.4015 21.2783 12.0323 20.7007 11.6548C20.6932 14.9017 20.7141 18.1443 20.6799 21.3778C20.5932 22.9313 20.0807 24.4772 19.1773 25.7572C17.7239 27.8882 15.2013 29.2774 12.6103 29.3208C11.021 29.4116 9.43346 28.9783 8.07922 28.1799C5.83493 26.8565 4.25568 24.4338 4.02567 21.8337C3.9967 21.283 3.99225 20.7314 4.01233 20.1803C4.21235 18.066 5.25823 16.0434 6.88165 14.6675C8.72175 13.0649 11.2994 12.3015 13.7129 12.7532C13.7354 14.3991 13.6695 16.0434 13.6695 17.6893C12.567 17.3326 11.2786 17.4326 10.3152 18.1018C9.61033 18.5662 9.07769 19.2493 8.79926 20.0461C8.56924 20.6095 8.63508 21.2353 8.64841 21.8337C8.9126 23.6571 10.666 25.1897 12.5378 25.0239C13.7787 25.0105 14.9679 24.2905 15.6146 23.2363C15.8238 22.8671 16.058 22.4896 16.0705 22.0554C16.1796 20.0678 16.1363 18.0885 16.1496 16.1009C16.1588 11.6215 16.1363 7.15459 16.1705 2.68935L16.1696 2.68852Z" fill="white"/>
</svg>
