<svg width="24" height="24" viewBox="0 0 24 24" fill="none" xmlns="http://www.w3.org/2000/svg">
<mask id="mask0_680_5956" style="mask-type:alpha" maskUnits="userSpaceOnUse" x="0" y="0" width="24" height="24">
<rect width="24" height="24" fill="#D9D9D9"/>
</mask>
<g mask="url(#mask0_680_5956)">
<path d="M12.0508 20C9.81745 20 7.91745 19.225 6.35078 17.675C4.78411 16.125 4.00078 14.2333 4.00078 12V11.825L3.10078 12.725C2.91745 12.9083 2.68411 13 2.40078 13C2.11745 13 1.88411 12.9083 1.70078 12.725C1.51745 12.5417 1.42578 12.3083 1.42578 12.025C1.42578 11.7417 1.51745 11.5083 1.70078 11.325L4.30078 8.725C4.40078 8.625 4.50911 8.554 4.62578 8.512C4.74245 8.47067 4.86745 8.45 5.00078 8.45C5.13411 8.45 5.25911 8.47067 5.37578 8.512C5.49245 8.554 5.60078 8.625 5.70078 8.725L8.30078 11.325C8.48411 11.5083 8.57578 11.7417 8.57578 12.025C8.57578 12.3083 8.48411 12.5417 8.30078 12.725C8.11745 12.9083 7.88411 13 7.60078 13C7.31745 13 7.08411 12.9083 6.90078 12.725L6.00078 11.825V12C6.00078 13.6667 6.58845 15.0833 7.76378 16.25C8.93845 17.4167 10.3674 18 12.0508 18C12.3841 18 12.7091 17.971 13.0258 17.913C13.3424 17.8543 13.6591 17.7667 13.9758 17.65C14.1424 17.5833 14.3218 17.5667 14.5138 17.6C14.7051 17.6333 14.8674 17.7167 15.0008 17.85C15.3008 18.15 15.4218 18.4707 15.3638 18.812C15.3051 19.154 15.0841 19.3917 14.7008 19.525C14.2674 19.675 13.8301 19.7917 13.3888 19.875C12.9468 19.9583 12.5008 20 12.0508 20ZM19.0008 15.55C18.8674 15.55 18.7424 15.529 18.6258 15.487C18.5091 15.4457 18.4008 15.375 18.3008 15.275L15.7008 12.675C15.5174 12.4917 15.4258 12.2583 15.4258 11.975C15.4258 11.6917 15.5174 11.4583 15.7008 11.275C15.8841 11.0917 16.1174 11 16.4008 11C16.6841 11 16.9174 11.0917 17.1008 11.275L18.0008 12.175V12C18.0008 10.3333 17.4134 8.91667 16.2388 7.75C15.0634 6.58333 13.6341 6 11.9508 6C11.6174 6 11.2924 6.02933 10.9758 6.088C10.6591 6.146 10.3424 6.23333 10.0258 6.35C9.85911 6.41667 9.68011 6.43333 9.48878 6.4C9.29678 6.36667 9.13411 6.28333 9.00078 6.15C8.70078 5.85 8.57978 5.529 8.63778 5.187C8.69645 4.84567 8.91745 4.60833 9.30078 4.475C9.73411 4.325 10.1718 4.20833 10.6138 4.125C11.0551 4.04167 11.5008 4 11.9508 4C14.1841 4 16.0841 4.775 17.6508 6.325C19.2174 7.875 20.0008 9.76667 20.0008 12V12.175L20.9008 11.275C21.0841 11.0917 21.3174 11 21.6008 11C21.8841 11 22.1174 11.0917 22.3008 11.275C22.4841 11.4583 22.5758 11.6917 22.5758 11.975C22.5758 12.2583 22.4841 12.4917 22.3008 12.675L19.7008 15.275C19.6008 15.375 19.4924 15.4457 19.3758 15.487C19.2591 15.529 19.1341 15.55 19.0008 15.55Z" fill="#DB578A"/>
</g>
</svg>
