<svg width="72" height="73" viewBox="0 0 72 73" fill="none" xmlns="http://www.w3.org/2000/svg">
<circle opacity="0.3" cx="50" cy="21.3633" r="20" fill="#02A2A2"/>
<path d="M4 8.36329C4 6.15415 5.79086 4.36328 8 4.36328H64C66.2091 4.36328 68 6.15414 68 8.36328V11.9996C68 14.2088 66.2091 15.9996 64 15.9996H8C5.79086 15.9996 4 14.2088 4 11.9996V8.36329Z" fill="#3E4753"/>
<path d="M40.9654 47.1476C42.1015 46.0115 43.9434 46.0115 45.0795 47.1476L57.4217 59.4898C58.5578 60.6259 58.5578 62.4678 57.4217 63.6039C56.2857 64.74 54.4437 64.74 53.3077 63.6039L40.9654 51.2617C39.8294 50.1256 39.8294 48.2837 40.9654 47.1476Z" fill="#3E4753"/>
<path d="M31.2398 47.1476C32.3759 48.2836 32.3759 50.1256 31.2398 51.2616L18.8976 63.6039C17.7615 64.7399 15.9196 64.7399 14.7835 63.6039C13.6475 62.4678 13.6475 60.6259 14.7835 59.4898L27.1258 47.1476C28.2618 46.0115 30.1038 46.0115 31.2398 47.1476Z" fill="#3E4753"/>
<path d="M36 48.3633C37.6569 48.3633 39 49.7064 39 51.3633V65.3633C39 67.0201 37.6569 68.3633 36 68.3633C34.3431 68.3633 33 67.0201 33 65.3633V51.3633C33 49.7064 34.3431 48.3633 36 48.3633Z" fill="#3E4753"/>
<path d="M44.7273 4.36328C45.5515 4.36328 46.242 4.64255 46.7986 5.2011C47.3571 5.75771 47.6364 6.44813 47.6364 7.27237L47.6364 10.1815L59.2728 10.1815C60.8728 10.1815 62.242 10.7507 63.3804 11.8891C64.5208 13.0295 65.0909 14.3996 65.0909 15.9996L65.0909 45.0906C65.0909 46.6906 64.5208 48.0607 63.3804 49.2011C62.242 50.3395 60.8728 50.9087 59.2728 50.9087L12.7273 50.9087C11.1273 50.9087 9.75712 50.3395 8.61676 49.2011C7.47833 48.0607 6.90912 46.6905 6.90912 45.0905L6.90912 15.9996C6.90912 14.3996 7.47834 13.0295 8.61676 11.8891C9.75712 10.7507 11.1273 10.1815 12.7273 10.1815L24.3637 10.1815V7.27237C24.3637 6.44813 24.642 5.7577 25.1986 5.2011C25.7571 4.64255 26.4485 4.36328 27.2728 4.36328L44.7273 4.36328ZM59.2728 15.9996L12.7273 15.9996L12.7273 45.0906L59.2728 45.0906V15.9996Z" fill="#3E4753"/>
</svg>
