<svg width="32" height="32" viewBox="0 0 32 32" fill="none" xmlns="http://www.w3.org/2000/svg">
<path d="M31.3299 9.56563C31.1488 8.91935 30.7959 8.33425 30.3087 7.87252C29.8079 7.39659 29.194 7.05614 28.525 6.88332C26.0213 6.22341 15.9907 6.22341 15.9907 6.22341C11.809 6.17583 7.62837 6.38509 3.47236 6.84999C2.80337 7.03558 2.19061 7.38363 1.6886 7.86319C1.19533 8.33779 0.838043 8.92304 0.651402 9.56429C0.203053 11.9796 -0.0147857 14.4321 0.0008228 16.8886C-0.015175 19.343 0.202129 21.7946 0.651402 24.213C0.834044 24.8516 1.19 25.4342 1.6846 25.9048C2.1792 26.3754 2.79511 26.7153 3.47236 26.8953C6.00935 27.5539 15.9907 27.5539 15.9907 27.5539C20.1777 27.6015 24.3636 27.3923 28.525 26.9273C29.194 26.7545 29.8079 26.414 30.3087 25.9381C30.802 25.4675 31.1526 24.8822 31.3286 24.245C31.7887 21.8306 32.0124 19.3771 31.9965 16.9193C32.0311 14.4511 31.8077 11.9861 31.3299 9.56429V9.56563ZM12.8018 21.4534V12.3253L21.1473 16.89L12.8018 21.4534Z" fill="white"/>
</svg>
