<svg width="32" height="22" viewBox="0 0 32 22" fill="none" xmlns="http://www.w3.org/2000/svg">
<path d="M31.3299 3.5663C31.1488 2.92002 30.7959 2.33492 30.3087 1.87319C29.8079 1.39726 29.194 1.05681 28.525 0.88399C26.0213 0.224079 15.9907 0.224079 15.9907 0.224079C11.809 0.176502 7.62837 0.385757 3.47236 0.850661C2.80337 1.03625 2.19061 1.38431 1.6886 1.86386C1.19533 2.33846 0.838043 2.92372 0.651402 3.56496C0.203053 5.9803 -0.0147857 8.43277 0.0008228 10.8893C-0.015175 13.3436 0.202129 15.7953 0.651402 18.2137C0.834044 18.8522 1.19 19.4348 1.6846 19.9054C2.1792 20.376 2.79511 20.716 3.47236 20.896C6.00935 21.5545 15.9907 21.5545 15.9907 21.5545C20.1777 21.6022 24.3636 21.3929 28.525 20.928C29.194 20.7551 29.8079 20.4147 30.3087 19.9388C30.802 19.4682 31.1526 18.8829 31.3286 18.2457C31.7887 15.8313 32.0124 13.3778 31.9965 10.92C32.0311 8.45178 31.8077 5.98672 31.3299 3.56496V3.5663ZM12.8018 15.454V6.32593L21.1473 10.8906L12.8018 15.454Z" fill="white"/>
</svg>
