<svg xmlns="http://www.w3.org/2000/svg" xmlns:xlink="http://www.w3.org/1999/xlink" width="151.665" height="48" viewBox="0 0 151.665 48">
  <defs>
    <clipPath id="clip-path">
      <rect id="Rectángulo_1" data-name="Rectángulo 1" width="151.665" height="48" transform="translate(0.667 4)" fill="#fff"/>
    </clipPath>
  </defs>
  <g id="Grupo_2" data-name="Grupo 2" transform="translate(-0.667 -4)" clip-path="url(#clip-path)">
    <path id="Trazado_24" data-name="Trazado 24" d="M52.389,17.432H49.275L48.1,24.01H46.125l2.8-15.754h5.086c3.685,0,5.067,2.027,4.607,4.607S56.277,17.432,52.389,17.432Zm.295-1.622a3.427,3.427,0,0,0,3.833-2.948c.35-1.843-.442-2.985-2.8-2.985H50.694l-1.05,5.933Z" fill="#14648c"/>
    <path id="Trazado_25" data-name="Trazado 25" d="M66.559,11.408a4.164,4.164,0,0,1,4.164,2.469l.405-2.248h2.1L71.019,24.011H68.936l.424-2.3a6.394,6.394,0,0,1-5.086,2.6c-3.3,0-5.528-2.6-4.754-6.449a7.37,7.37,0,0,1,7.039-6.449Zm0,1.843a5.178,5.178,0,0,0-4.993,4.57c-.442,2.8,1.2,4.643,3.446,4.643a5.27,5.27,0,0,0,5.03-4.607,3.5,3.5,0,0,0-3.39-4.606Z" fill="#14648c"/>
    <path id="Trazado_26" data-name="Trazado 26" d="M84.8,16.936c.424-2.469-.7-3.685-2.782-3.685a4.256,4.256,0,0,0-4.256,3.98l-1.216,6.891H74.5L76.694,11.74h2.064l-.313,1.843a5.527,5.527,0,0,1,4.33-2.174c2.838,0,4.736,1.843,4.109,5.325L85.593,24.1H83.567Z" fill="#14648c"/>
    <path id="Trazado_27" data-name="Trazado 27" d="M96.317,11.407a4.145,4.145,0,0,1,4.146,2.469l.406-2.248h2.082l-2.193,12.382H98.676l.442-2.3a6.394,6.394,0,0,1-5.086,2.6c-3.3,0-5.436-2.6-4.754-6.449a7.371,7.371,0,0,1,7.039-6.449Zm0,1.843a5.2,5.2,0,0,0-4.993,4.57c-.442,2.8,1.179,4.643,3.446,4.643a5.27,5.27,0,0,0,5.03-4.607,3.5,3.5,0,0,0-3.409-4.607Z" fill="#14648c"/>
    <path id="Trazado_28" data-name="Trazado 28" d="M123.367,16.935c.442-2.469-.682-3.685-2.709-3.685a4.146,4.146,0,0,0-4.127,3.685l-1.29,7.168H113.2l1.253-7.168c.442-2.469-.682-3.685-2.727-3.685a4.237,4.237,0,0,0-4.2,4L106.4,24.01h-2.156L106.4,11.628h2.063l-.313,1.843a5.418,5.418,0,0,1,4.312-2.064,3.777,3.777,0,0,1,4.035,2.764,5.692,5.692,0,0,1,4.883-2.764c2.8,0,4.717,1.843,4.072,5.325l-1.29,7.371h-2.027Z" fill="#14648c"/>
    <path id="Trazado_29" data-name="Trazado 29" d="M136.431,11.407c3.372,0,5.528,2.488,4.772,6.357a7.37,7.37,0,0,1-7,6.449,4.2,4.2,0,0,1-4.2-2.487l-.4,2.285h-2.064L130.5,7.279h2.045l-1.161,6.652a6.358,6.358,0,0,1,5.049-2.524Zm-.719,1.843a5.307,5.307,0,0,0-5.011,4.606,3.482,3.482,0,0,0,3.335,4.607,5.252,5.252,0,0,0,5.012-4.643C139.563,14.852,138,13.249,135.712,13.249Z" fill="#14648c"/>
    <path id="Trazado_30" data-name="Trazado 30" d="M145.091,11.629h2.064l-2.193,12.382h-2.155Zm4.183-5.307-.313,1.843-5.288,2.58.276-1.529Z" fill="#14648c"/>
    <path id="Trazado_31" data-name="Trazado 31" d="M52.813,29.925A6.025,6.025,0,0,1,59.3,34.7H56.849A4.091,4.091,0,0,0,52.5,31.8,7.076,7.076,0,0,0,45.59,38c-.645,3.777,1.382,6.173,4.662,6.173a6.21,6.21,0,0,0,5.362-2.875h2.469a9.213,9.213,0,0,1-8.144,4.736A6.339,6.339,0,0,1,43.49,38a9.655,9.655,0,0,1,9.324-8.071Z" fill="#14648c"/>
    <path id="Trazado_32" data-name="Trazado 32" d="M65.859,46.085a4.9,4.9,0,0,1-5.288-5.2,7.371,7.371,0,0,1,7.37-7.628,4.957,4.957,0,0,1,5.307,5.178,7.463,7.463,0,0,1-7.389,7.647Zm.24-1.732a5.528,5.528,0,0,0,5.159-5.767A3.3,3.3,0,0,0,67.7,35.03a5.4,5.4,0,0,0-5.012,5.859,3.224,3.224,0,0,0,3.372,3.464Z" fill="#14648c"/>
    <path id="Trazado_33" data-name="Trazado 33" d="M82.185,33.3a4.183,4.183,0,0,1,4.164,2.451l.405-2.23h2.082L86.644,45.9H84.562l.424-2.3A6.394,6.394,0,0,1,79.9,46.1c-3.3,0-5.417-2.6-4.754-6.431A7.371,7.371,0,0,1,82.185,33.3Zm0,1.843a5.159,5.159,0,0,0-4.993,4.57c-.516,2.911,1.106,4.625,3.372,4.625a5.251,5.251,0,0,0,5.012-4.606,3.483,3.483,0,0,0-3.3-4.643Z" fill="#14648c"/>
    <path id="Trazado_34" data-name="Trazado 34" d="M97.626,33.3a4.366,4.366,0,0,1,4.975,4.183H100.39a2.746,2.746,0,0,0-3.077-2.451,4.938,4.938,0,0,0-4.754,4.643c-.534,3.077.866,4.68,3.132,4.68A4.072,4.072,0,0,0,99.6,41.9h2.211a6.819,6.819,0,0,1-6.468,4.183c-3.519,0-5.528-2.487-4.92-6.412a7.37,7.37,0,0,1,7.2-6.375Z" fill="#14648c"/>
    <path id="Trazado_35" data-name="Trazado 35" d="M106.8,29.152h2.064l-1.087,6.21a5.694,5.694,0,0,1,4.459-2.008c2.745,0,4.625,1.75,4,5.307l-1.29,7.371H112.9l1.253-7c.424-2.543-.7-3.833-2.782-3.833a4.275,4.275,0,0,0-4.257,3.851L105.9,45.938h-2.064Z" fill="#14648c"/>
    <path id="Trazado_36" data-name="Trazado 36" d="M120.511,33.52h2.045L120.364,45.9h-2.046Zm.258-3.427a1.844,1.844,0,0,1,1.64-1.4,1.124,1.124,0,0,1,1.124,1.4,1.714,1.714,0,0,1-1.622,1.419,1.142,1.142,0,0,1-1.142-1.437Z" fill="#14648c"/>
    <path id="Trazado_37" data-name="Trazado 37" d="M134.183,38.881c.424-2.543-.7-3.833-2.782-3.833a4.275,4.275,0,0,0-4.257,4l-1.216,6.891h-2.045l2.193-12.419h2.045l-.313,1.843a5.524,5.524,0,0,1,4.385-2.082c2.838,0,4.736,1.75,4.109,5.307l-1.29,7.37h-2.027Z" fill="#14648c"/>
    <path id="Trazado_38" data-name="Trazado 38" d="M145.7,33.3a4.109,4.109,0,0,1,4.146,2.451l.406-2.23h2.082L150.1,46.177a6.872,6.872,0,0,1-6.854,5.767c-3.262,0-5.307-1.64-5.252-4.293h2.064a3.114,3.114,0,0,0,3.5,2.524,4.57,4.57,0,0,0,4.57-4.054l.46-2.6a6.394,6.394,0,0,1-5.067,2.524c-3.317,0-5.528-2.6-4.772-6.431A7.37,7.37,0,0,1,145.7,33.3Zm0,1.843a5.176,5.176,0,0,0-4.993,4.57c-.516,2.911,1.105,4.625,3.372,4.625a5.269,5.269,0,0,0,5.03-4.606,3.483,3.483,0,0,0-3.335-4.643Z" fill="#14648c"/>
    <path id="Trazado_39" data-name="Trazado 39" d="M19.794,23.163l-.884-.405-.94,5.528.221.258a6.505,6.505,0,0,1,.977,1.843l-2.045-2.229v1.99a11.056,11.056,0,0,0,2.672,6.873,4.9,4.9,0,0,0,2.524,1.253,6.416,6.416,0,0,0,1.05,0h.111A4.588,4.588,0,0,0,26.225,37.2a6.726,6.726,0,0,0,1.843-5.988C28.012,30.828,27.4,26.646,19.794,23.163Zm.295,9.453a.811.811,0,0,0,.627-.608,5.4,5.4,0,0,0-1.161-4.127l.5-2.93c6.025,3.04,6.468,6.449,6.468,6.5a5.307,5.307,0,0,1-1.382,4.754,3.059,3.059,0,0,1-1.714.645,3.52,3.52,0,0,1-2.635-.921,7.2,7.2,0,0,1-1.843-3.685,1.235,1.235,0,0,0,1.2.368Z" fill="#14648c"/>
    <path id="Trazado_40" data-name="Trazado 40" d="M16.772,28.12l-2.69,1.456a6.1,6.1,0,0,1,1.492-1.345l.276-.24.94-5.528-.977.092C7.54,23.366,5.587,27.125,5.4,27.53a6.762,6.762,0,0,0-.24,6.265,4.477,4.477,0,0,0,2.193,1.843,5.346,5.346,0,0,0,1.142.332,5.173,5.173,0,0,0,.921,0,5.158,5.158,0,0,0,1.843-.424c3.1-1.363,4.717-5.528,4.791-5.73Zm-4.735,2.543a.921.921,0,0,0,.405.811,1.346,1.346,0,0,0,1.2,0,7.372,7.372,0,0,1-2.948,2.893,3.483,3.483,0,0,1-2.782,0A2.838,2.838,0,0,1,6.49,33.187a5.307,5.307,0,0,1,.258-4.957s1.548-3.1,8.236-3.925l-.5,2.93A5.528,5.528,0,0,0,12.036,30.663Z" fill="#14648c"/>
    <path id="Trazado_41" data-name="Trazado 41" d="M38,10.08a24.156,24.156,0,0,1-3.869-.369l-.884-.147a15.035,15.035,0,0,0-7.923,1.327,9.71,9.71,0,0,1,4.128-2.119.737.737,0,0,0,.553-.9.83.83,0,0,0-.332-.461.866.866,0,0,0-.663-.092,12.474,12.474,0,0,0-8.31,7.2A19.623,19.623,0,0,0,19,20.048v.442l5.657,3.943a5.526,5.526,0,0,0,1.843.682h.811a11.055,11.055,0,0,0,10.1-7.5,20.157,20.157,0,0,0,1.382-6.873v-.682Zm-.755,1.474a19.384,19.384,0,0,1-1.235,5.528A9.453,9.453,0,0,1,27.164,23.7a3.537,3.537,0,0,1-1.732-.5l-4.865-3.372a11.314,11.314,0,0,1,5.344-7.61,13.71,13.71,0,0,1,7.057-1.161l.866.129A30.108,30.108,0,0,0,37.243,11.554Z" fill="#14648c"/>
    <path id="Trazado_42" data-name="Trazado 42" d="M7.78,22.039a4.749,4.749,0,0,0,.774.221,4.148,4.148,0,0,0,.94,0,4.106,4.106,0,0,0,1.087-.055l6.081-1.714a.849.849,0,0,0,.369,0h.184v-.166a.682.682,0,0,0,.129-.258,20.27,20.27,0,0,0,.2-5.8,12.456,12.456,0,0,0-5.528-9.526.756.756,0,0,0-1.032.221.682.682,0,0,0,0,.571.718.718,0,0,0,.2.35,9.858,9.858,0,0,1,3.3,3.5l-.221-.2a15.073,15.073,0,0,0-7-3.833L6.4,5.18a21.89,21.89,0,0,1-3.8-.921l-.7-.221-.258.7A20.858,20.858,0,0,0,.686,11.7,11.056,11.056,0,0,0,7.78,22.039ZM2.842,5.88a27.639,27.639,0,0,0,3.28.755l.866.166a13.763,13.763,0,0,1,6.283,3.409,11.277,11.277,0,0,1,2.561,8.955L10.139,20.75A3.244,3.244,0,0,1,8.3,20.657a9.471,9.471,0,0,1-6.154-9.029A19.734,19.734,0,0,1,2.842,5.88Z" fill="#14648c"/>
    <path id="Trazado_43" data-name="Trazado 43" d="M22.263,42.732a.571.571,0,0,0-.461,0,.552.552,0,0,0-.313.332l-1.7,4.275a.571.571,0,0,0,0,.461.608.608,0,0,0,.332.313.5.5,0,0,0,.24,0,.553.553,0,0,0,.534-.368l1.677-4.238a.572.572,0,0,0,0-.461A.608.608,0,0,0,22.263,42.732Z" fill="#14648c"/>
    <path id="Trazado_44" data-name="Trazado 44" d="M20.678,39.6a.608.608,0,0,0-.332-.313.571.571,0,0,0-.461,0,.553.553,0,0,0-.313.332l-3.464,8.826a.608.608,0,0,0,.35.774.459.459,0,0,0,.221,0,.571.571,0,0,0,.553-.387l3.409-8.808A.571.571,0,0,0,20.678,39.6Z" fill="#14648c"/>
    <path id="Trazado_45" data-name="Trazado 45" d="M6.656,38.623a.645.645,0,0,0-.332-.332.662.662,0,0,0-.461,0,.608.608,0,0,0-.313.332L3.708,43.285a.664.664,0,0,0,0,.461.608.608,0,0,0,.332.313.5.5,0,0,0,.24,0,.553.553,0,0,0,.534-.387l1.843-4.643A.571.571,0,0,0,6.656,38.623Z" fill="#14648c"/>
    <path id="Trazado_46" data-name="Trazado 46" d="M10.765,37.461a.664.664,0,0,0-.461,0,.682.682,0,0,0-.332.35l-3.5,9.213a.663.663,0,0,0,0,.461.719.719,0,0,0,.332.332h.24A.645.645,0,0,0,7.6,47.43l3.5-9.213a.664.664,0,0,0,0-.461A.608.608,0,0,0,10.765,37.461Z" fill="#14648c"/>
  </g>
</svg>
