<svg xmlns="http://www.w3.org/2000/svg" width="175.131" height="24" viewBox="0 0 175.131 24">
  <g id="Grupo_1" data-name="Grupo 1" transform="translate(-0.434 -6)">
    <path id="Trazado_1" data-name="Trazado 1" d="M28.538,19.073H26.406L25.6,23.6H24.25l1.917-10.84h3.48c2.522,0,3.468,1.394,3.153,3.169S31.2,19.073,28.538,19.073Zm.2-1.116a2.337,2.337,0,0,0,1.728-.47,2.361,2.361,0,0,0,.9-1.558c.24-1.268-.3-2.054-1.917-2.054H27.377l-.719,4.082Z" fill="#14648c"/>
    <path id="Trazado_2" data-name="Trazado 2" d="M38.235,14.926a2.848,2.848,0,0,1,2.85,1.7l.277-1.547H42.8L41.287,23.6H39.862l.29-1.585a4.368,4.368,0,0,1-3.48,1.788c-2.257,0-3.783-1.788-3.253-4.437a5.055,5.055,0,0,1,4.817-4.437Zm0,1.268a3.533,3.533,0,0,0-2.291.933,3.569,3.569,0,0,0-1.127,2.211c-.3,1.927.82,3.195,2.358,3.195a3.614,3.614,0,0,0,3.443-3.17,2.412,2.412,0,0,0-1.213-2.921,2.385,2.385,0,0,0-1.107-.248Z" fill="#14648c"/>
    <path id="Trazado_3" data-name="Trazado 3" d="M50.719,18.731c.29-1.7-.479-2.536-1.9-2.536a2.9,2.9,0,0,0-2,.79,2.935,2.935,0,0,0-.917,1.949l-.832,4.741h-1.4l1.5-8.519h1.412l-.214,1.268a3.777,3.777,0,0,1,2.963-1.5c1.942,0,3.241,1.268,2.812,3.664l-.883,5.071H49.874Z" fill="#14648c"/>
    <path id="Trazado_4" data-name="Trazado 4" d="M58.6,14.926a2.835,2.835,0,0,1,2.837,1.7l.277-1.547H63.14l-1.5,8.519H60.214l.3-1.585a4.369,4.369,0,0,1-3.48,1.788c-2.257,0-3.72-1.788-3.253-4.437A5.055,5.055,0,0,1,58.6,14.926Zm0,1.268a3.563,3.563,0,0,0-3.417,3.144c-.3,1.927.807,3.195,2.358,3.195a3.614,3.614,0,0,0,3.443-3.17,2.412,2.412,0,0,0-1.222-2.926,2.385,2.385,0,0,0-1.111-.244Z" fill="#14648c"/>
    <path id="Trazado_5" data-name="Trazado 5" d="M77.113,18.729c.3-1.7-.467-2.536-1.854-2.536a2.843,2.843,0,0,0-2.825,2.536l-.883,4.932h-1.4l.857-4.932c.3-1.7-.467-2.536-1.866-2.536a2.893,2.893,0,0,0-1.979.8,2.923,2.923,0,0,0-.9,1.947L65.5,23.6H64.023L65.5,15.078h1.412L66.7,16.346a3.7,3.7,0,0,1,2.951-1.42,2.586,2.586,0,0,1,2.762,1.9,3.892,3.892,0,0,1,3.342-1.9c1.917,0,3.228,1.268,2.787,3.664l-.883,5.071H76.268Z" fill="#14648c"/>
    <path id="Trazado_6" data-name="Trazado 6" d="M86.053,14.928c2.308,0,3.783,1.712,3.266,4.374a5.055,5.055,0,0,1-4.792,4.437,2.873,2.873,0,0,1-2.875-1.712L81.374,23.6H79.962l2.03-11.511h1.4L82.6,16.665a4.342,4.342,0,0,1,3.455-1.737ZM85.561,16.2a3.64,3.64,0,0,0-3.43,3.169,2.4,2.4,0,0,0,1.184,2.914,2.373,2.373,0,0,0,1.1.256,3.6,3.6,0,0,0,3.43-3.195C88.2,17.3,87.124,16.2,85.561,16.2Z" fill="#14648c"/>
    <path id="Trazado_7" data-name="Trazado 7" d="M91.98,15.079h1.412l-1.5,8.519H90.416Zm2.862-3.651L94.628,12.7,91.009,14.47l.189-1.052Z" fill="#14648c"/>
    <path id="Trazado_8" data-name="Trazado 8" d="M107.458,12.278a4.125,4.125,0,0,1,4.438,3.283h-1.677a2.8,2.8,0,0,0-2.976-1.99,4.829,4.829,0,0,0-3.156,1.242,4.882,4.882,0,0,0-1.573,3.018c-.441,2.6.946,4.247,3.191,4.247a4.243,4.243,0,0,0,3.669-1.978h1.69a6.3,6.3,0,0,1-5.574,3.258,4.329,4.329,0,0,1-3.618-1.625,4.377,4.377,0,0,1-.795-3.9,6.619,6.619,0,0,1,6.381-5.553Z" fill="#14648c"/>
    <path id="Trazado_9" data-name="Trazado 9" d="M116.387,23.4a3.345,3.345,0,0,1-2.623-.956,3.384,3.384,0,0,1-1-2.619,5.107,5.107,0,0,1,.333-2,5.041,5.041,0,0,1,4.712-3.253,3.382,3.382,0,0,1,2.612.961,3.419,3.419,0,0,1,1.019,2.6,5.146,5.146,0,0,1-1.433,3.695,5.092,5.092,0,0,1-3.623,1.566Zm.164-1.192a3.774,3.774,0,0,0,2.571-1.259,3.816,3.816,0,0,0,.959-2.709,2.267,2.267,0,0,0-1.471-2.315,2.247,2.247,0,0,0-.962-.132,3.692,3.692,0,0,0-2.558,1.292,3.722,3.722,0,0,0-.872,2.74,2.225,2.225,0,0,0,.619,1.715,2.2,2.2,0,0,0,1.688.669Z" fill="#14648c"/>
    <path id="Trazado_10" data-name="Trazado 10" d="M127.558,14.6a2.86,2.86,0,0,1,2.85,1.686l.277-1.534h1.425l-1.5,8.519h-1.425l.29-1.585a4.369,4.369,0,0,1-3.481,1.724c-2.257,0-3.707-1.788-3.253-4.425a5.083,5.083,0,0,1,1.612-3.077A5.03,5.03,0,0,1,127.558,14.6Zm0,1.268a3.52,3.52,0,0,0-2.293.93,3.556,3.556,0,0,0-1.124,2.214c-.353,2,.756,3.182,2.307,3.182a3.6,3.6,0,0,0,3.43-3.169,2.4,2.4,0,0,0-1.158-2.93,2.373,2.373,0,0,0-1.1-.265Z" fill="#14648c"/>
    <path id="Trazado_11" data-name="Trazado 11" d="M138.125,14.6a2.977,2.977,0,0,1,2.341.675,3,3,0,0,1,1.064,2.2h-1.513a1.895,1.895,0,0,0-.7-1.29,1.873,1.873,0,0,0-1.407-.4,3.388,3.388,0,0,0-3.253,3.195c-.366,2.117.592,3.22,2.143,3.22a2.787,2.787,0,0,0,2.674-1.686h1.513a4.664,4.664,0,0,1-4.426,2.878c-2.409,0-3.783-1.712-3.367-4.412a5.053,5.053,0,0,1,4.93-4.386Z" fill="#14648c"/>
    <path id="Trazado_12" data-name="Trazado 12" d="M144.406,11.744h1.412l-.744,4.273a3.888,3.888,0,0,1,3.052-1.382c1.879,0,3.165,1.2,2.736,3.651l-.883,5.071h-1.4l.857-4.818c.29-1.75-.479-2.637-1.9-2.637a2.919,2.919,0,0,0-1.965.76,2.948,2.948,0,0,0-.948,1.889l-.832,4.742h-1.413Z" fill="#14648c"/>
    <path id="Trazado_13" data-name="Trazado 13" d="M153.787,14.75h1.4l-1.5,8.519h-1.4Zm.176-2.358a1.265,1.265,0,0,1,1.123-.964.771.771,0,0,1,.775.609.786.786,0,0,1-.006.354,1.174,1.174,0,0,1-1.11.976.782.782,0,0,1-.639-.3.788.788,0,0,1-.153-.329.8.8,0,0,1,.01-.363Z" fill="#14648c"/>
    <path id="Trazado_14" data-name="Trazado 14" d="M163.143,18.438c.29-1.75-.479-2.637-1.9-2.637a2.914,2.914,0,0,0-2,.8,2.948,2.948,0,0,0-.917,1.954l-.832,4.741h-1.4l1.5-8.545h1.4l-.215,1.268a3.776,3.776,0,0,1,3-1.433c1.942,0,3.241,1.2,2.813,3.651l-.883,5.071h-1.387Z" fill="#14648c"/>
    <path id="Trazado_15" data-name="Trazado 15" d="M171.026,14.6a2.809,2.809,0,0,1,2.837,1.686l.277-1.534h1.425l-1.525,8.71a4.735,4.735,0,0,1-1.615,2.858,4.686,4.686,0,0,1-3.076,1.11c-2.232,0-3.632-1.128-3.594-2.954h1.412a2.132,2.132,0,0,0,2.4,1.737,3.133,3.133,0,0,0,3.127-2.789l.316-1.788a4.37,4.37,0,0,1-3.468,1.737c-2.27,0-3.783-1.788-3.266-4.424a5.079,5.079,0,0,1,1.6-3.034A5.027,5.027,0,0,1,171.026,14.6Zm0,1.268a3.536,3.536,0,0,0-2.291.933,3.574,3.574,0,0,0-1.127,2.211c-.353,2,.757,3.182,2.308,3.182a3.615,3.615,0,0,0,3.443-3.17,2.408,2.408,0,0,0-.312-2.2,2.377,2.377,0,0,0-1.971-1Z" fill="#14648c"/>
    <path id="Trazado_16" data-name="Trazado 16" d="M10.532,16.157l-.467-.215-.5,2.936.117.137a3.459,3.459,0,0,1,.516.978l-1.08-1.184v1.057a5.889,5.889,0,0,0,1.411,3.65,2.583,2.583,0,0,0,1.333.665,3.358,3.358,0,0,0,.555,0h.058a2.416,2.416,0,0,0,1.45-.568,3.584,3.584,0,0,0,.973-3.18C14.873,20.227,14.552,18.006,10.532,16.157Zm.156,5.02a.429.429,0,0,0,.331-.323,2.878,2.878,0,0,0-.613-2.192l.263-1.556c3.183,1.615,3.416,3.425,3.416,3.454a2.828,2.828,0,0,1-.73,2.525,1.611,1.611,0,0,1-.905.343,1.853,1.853,0,0,1-1.392-.489,3.833,3.833,0,0,1-.973-1.957.65.65,0,0,0,.633.2Z" fill="#14648c"/>
    <path id="Trazado_17" data-name="Trazado 17" d="M8.936,18.789l-1.421.773a3.226,3.226,0,0,1,.788-.714l.146-.127.5-2.935-.516.049c-4.37.431-5.4,2.427-5.5,2.642A3.608,3.608,0,0,0,2.8,21.8a2.369,2.369,0,0,0,1.158.979,2.814,2.814,0,0,0,.6.176,2.728,2.728,0,0,0,.487,0,2.712,2.712,0,0,0,.973-.225,5.947,5.947,0,0,0,2.531-3.043Zm-2.5,1.35a.49.49,0,0,0,.214.431.707.707,0,0,0,.633,0,3.9,3.9,0,0,1-1.557,1.536,1.83,1.83,0,0,1-1.47,0A1.5,1.5,0,0,1,3.5,21.48a2.831,2.831,0,0,1,.136-2.632s.818-1.644,4.351-2.084l-.263,1.556A2.935,2.935,0,0,0,6.434,20.139Z" fill="#14648c"/>
    <path id="Trazado_18" data-name="Trazado 18" d="M20.149,9.21a12.694,12.694,0,0,1-2.044-.2l-.467-.078a7.9,7.9,0,0,0-4.185.7,5.12,5.12,0,0,1,2.18-1.125.39.39,0,0,0,.247-.178.393.393,0,0,0,.045-.3.44.44,0,0,0-.175-.245.455.455,0,0,0-.35-.049,6.6,6.6,0,0,0-4.39,3.826,10.459,10.459,0,0,0-.9,2.936v.235L13.1,16.832a2.909,2.909,0,0,0,.973.362H14.5a5.844,5.844,0,0,0,5.334-3.983,10.754,10.754,0,0,0,.73-3.65V9.2Zm-.4.783a10.339,10.339,0,0,1-.652,2.936,5,5,0,0,1-4.672,3.513,1.861,1.861,0,0,1-.915-.264l-2.569-1.791a6.007,6.007,0,0,1,2.823-4.041,7.207,7.207,0,0,1,3.728-.616l.457.068A15.823,15.823,0,0,0,19.75,9.992Z" fill="#14648c"/>
    <path id="Trazado_19" data-name="Trazado 19" d="M4.187,15.56a2.494,2.494,0,0,0,.409.117,2.18,2.18,0,0,0,.5,0,2.155,2.155,0,0,0,.574-.029l3.212-.91a.444.444,0,0,0,.195,0h.1V14.65a.363.363,0,0,0,.068-.137,10.82,10.82,0,0,0,.107-3.082,6.64,6.64,0,0,0-.874-2.872A6.6,6.6,0,0,0,6.425,6.372a.4.4,0,0,0-.545.117.364.364,0,0,0,0,.3.382.382,0,0,0,.107.186A5.224,5.224,0,0,1,7.729,8.838L7.613,8.73a7.949,7.949,0,0,0-3.7-2.035l-.457-.088a11.512,11.512,0,0,1-2-.489L1.082,6l-.136.372a11.132,11.132,0,0,0-.506,3.7A5.87,5.87,0,0,0,4.187,15.56ZM1.578,6.978a14.532,14.532,0,0,0,1.732.4l.457.088a7.259,7.259,0,0,1,3.319,1.81A6.011,6.011,0,0,1,8.44,14.033l-3.007.842a1.7,1.7,0,0,1-.973-.049,5.029,5.029,0,0,1-3.251-4.795A10.533,10.533,0,0,1,1.578,6.978Z" fill="#14648c"/>
    <path id="Trazado_20" data-name="Trazado 20" d="M11.836,26.549a.3.3,0,0,0-.243,0,.293.293,0,0,0-.165.176l-.9,2.27a.3.3,0,0,0,0,.245.322.322,0,0,0,.175.166.26.26,0,0,0,.127,0,.292.292,0,0,0,.282-.2L12,26.96a.305.305,0,0,0,0-.245A.322.322,0,0,0,11.836,26.549Z" fill="#14648c"/>
    <path id="Trazado_21" data-name="Trazado 21" d="M11,24.885a.322.322,0,0,0-.175-.166.3.3,0,0,0-.243,0,.293.293,0,0,0-.165.176l-1.83,4.687a.323.323,0,0,0,.185.411.24.24,0,0,0,.117,0,.3.3,0,0,0,.179-.055.3.3,0,0,0,.113-.151l1.8-4.677A.3.3,0,0,0,11,24.885Z" fill="#14648c"/>
    <path id="Trazado_22" data-name="Trazado 22" d="M3.593,24.366a.342.342,0,0,0-.175-.176.349.349,0,0,0-.243,0,.322.322,0,0,0-.165.176l-.973,2.476a.354.354,0,0,0,0,.245.322.322,0,0,0,.175.166.26.26,0,0,0,.127,0,.292.292,0,0,0,.282-.205l.973-2.466A.3.3,0,0,0,3.593,24.366Z" fill="#14648c"/>
    <path id="Trazado_23" data-name="Trazado 23" d="M5.765,23.75a.349.349,0,0,0-.243,0,.362.362,0,0,0-.175.186L3.5,28.829a.354.354,0,0,0,0,.245.38.38,0,0,0,.175.176H3.8a.341.341,0,0,0,.292-.205L5.94,24.152a.354.354,0,0,0,0-.245A.322.322,0,0,0,5.765,23.75Z" fill="#14648c"/>
  </g>
</svg>
