<?xml version="1.0" standalone="no"?>
<!DOCTYPE svg PUBLIC "-//W3C//DTD SVG 20010904//EN"
 "http://www.w3.org/TR/2001/REC-SVG-20010904/DTD/svg10.dtd">
<svg version="1.0" xmlns="http://www.w3.org/2000/svg"
 width="700.000000pt" height="700.000000pt" viewBox="0 0 700.000000 700.000000"
 preserveAspectRatio="xMidYMid meet">
<metadata>
Created by potrace 1.14, written by Peter Selinger 2001-2017
</metadata>
<g transform="translate(0.000000,700.000000) scale(0.100000,-0.100000)"
fill="#000000" stroke="none">
<path d="M892 6938 c-111 -287 -170 -674 -159 -1057 8 -297 49 -475 162 -703
83 -167 164 -278 310 -423 184 -185 384 -313 610 -391 75 -27 89 -28 232 -26
l152 2 456 125 c289 79 474 125 504 125 l48 0 16 53 c68 222 72 769 7 1089
-62 304 -210 598 -423 839 -134 151 -351 324 -421 336 -61 10 -116 -34 -116
-92 0 -47 28 -82 112 -141 145 -101 336 -303 395 -417 14 -28 7 -24 -53 29
-326 287 -715 471 -1154 544 -181 30 -334 66 -499 116 -79 24 -148 44 -151 44
-4 0 -17 -24 -28 -52z m320 -253 c79 -19 218 -48 310 -65 417 -76 702 -203
1006 -448 211 -170 388 -485 464 -829 19 -84 22 -130 23 -320 0 -122 -3 -225
-7 -229 -4 -3 -204 -60 -445 -126 -402 -109 -445 -119 -528 -120 -101 -1 -163
16 -302 83 -136 65 -259 154 -379 273 -200 201 -319 419 -381 698 -15 69 -18
129 -18 343 0 161 5 298 13 360 26 188 76 415 93 415 4 0 72 -16 151 -35z"/>
<path d="M4870 6482 c-307 -103 -523 -236 -746 -457 -188 -187 -277 -318 -404
-593 -116 -252 -221 -595 -236 -775 l-6 -62 422 -285 c231 -157 456 -302 498
-322 123 -59 193 -72 346 -65 551 26 1043 303 1332 747 125 194 249 520 320
845 23 106 27 149 31 360 l5 240 -144 2 c-176 3 -314 16 -528 51 -142 23 -195
27 -380 26 -344 0 -559 -43 -910 -182 -35 -14 16 31 94 82 133 87 285 157 417
191 93 24 125 42 143 80 21 43 12 86 -24 120 -45 43 -94 42 -230 -3z m889
-536 c96 -14 240 -31 319 -37 l144 -12 -7 -61 c-24 -230 -76 -453 -160 -691
-99 -277 -192 -432 -361 -601 -246 -246 -575 -393 -919 -410 -129 -7 -200 4
-287 46 -24 11 -205 130 -403 264 l-360 243 3 41 c8 122 140 424 259 592 125
175 338 370 507 465 127 71 393 150 581 174 50 6 101 13 115 15 75 13 405 -3
569 -28z"/>
<path d="M3000 4294 c-522 -56 -919 -178 -1220 -375 -129 -85 -281 -238 -338
-342 -99 -180 -135 -316 -134 -507 0 -144 28 -272 83 -387 49 -104 159 -208
280 -266 52 -25 123 -53 158 -62 73 -19 236 -21 321 -5 307 58 593 311 805
712 53 102 189 408 183 413 -2 2 -86 -42 -188 -96 -102 -54 -189 -99 -195 -99
-16 0 87 99 149 143 113 81 97 38 171 462 36 209 67 390 70 403 4 14 1 22 -7
21 -7 -1 -69 -7 -138 -15z m-123 -266 c-2 -7 -20 -103 -38 -212 l-34 -199 -55
-41 c-128 -94 -233 -230 -284 -367 -35 -93 -35 -140 -2 -184 32 -42 104 -62
162 -46 21 6 39 9 41 7 2 -1 -16 -31 -39 -67 -96 -142 -302 -313 -435 -361
-171 -60 -392 -16 -520 104 -101 96 -150 247 -140 442 6 126 29 212 85 321
147 281 590 512 1148 599 117 18 117 18 111 4z"/>
<path d="M3467 4253 c-2 -5 -35 -184 -72 -399 l-68 -390 47 -63 c45 -62 133
-227 125 -235 -2 -2 -69 66 -149 151 l-145 154 -3 -163 c-4 -188 9 -309 48
-463 52 -207 150 -406 287 -582 95 -122 215 -202 370 -244 68 -19 95 -21 208
-16 148 7 218 23 324 74 172 85 322 290 388 531 23 84 27 116 27 237 0 222
-38 348 -165 540 -207 312 -573 587 -1097 824 -125 56 -119 54 -125 44z m308
-380 c306 -169 548 -369 689 -567 53 -74 119 -203 135 -263 66 -246 2 -517
-163 -700 -133 -146 -371 -176 -577 -73 -108 55 -211 171 -288 326 -41 81 -91
222 -91 255 0 17 2 17 37 -3 76 -46 177 -23 211 46 20 40 18 217 -3 302 -21
85 -73 200 -120 265 -19 27 -35 59 -35 71 0 23 57 360 66 391 3 9 9 17 12 17
4 0 61 -30 127 -67z"/>
<path d="M2170 2112 c-35 -17 -39 -27 -307 -712 -150 -382 -273 -703 -273
-712 0 -9 12 -30 26 -47 19 -23 34 -31 60 -31 71 0 71 0 358 736 146 375 266
689 266 698 0 31 -21 57 -55 72 -42 17 -33 17 -75 -4z"/>
<path d="M1483 1978 c-28 -30 -303 -708 -303 -745 0 -66 92 -98 143 -50 28 25
307 701 307 742 0 65 -102 102 -147 53z"/>
<path d="M3595 1838 c-18 -17 -94 -192 -286 -668 -143 -355 -263 -659 -266
-676 -8 -46 32 -88 82 -86 21 1 47 8 59 16 16 10 94 196 285 676 145 364 266
670 268 681 3 12 -6 29 -25 49 -37 37 -80 40 -117 8z"/>
<path d="M3885 1338 c-31 -28 -288 -645 -289 -695 0 -47 28 -73 79 -73 26 0
51 7 64 18 25 20 281 643 281 683 0 41 -9 58 -41 74 -39 21 -64 19 -94 -7z"/>
</g>
</svg>
