<?xml version="1.0" standalone="no"?>
<!DOCTYPE svg PUBLIC "-//W3C//DTD SVG 20010904//EN"
 "http://www.w3.org/TR/2001/REC-SVG-20010904/DTD/svg10.dtd">
<svg version="1.0" xmlns="http://www.w3.org/2000/svg"
 width="700.000000pt" height="700.000000pt" viewBox="0 0 700.000000 700.000000"
 preserveAspectRatio="xMidYMid meet">
<metadata>
Created by potrace 1.14, written by Peter Selinger 2001-2017
</metadata>
<g transform="translate(0.000000,700.000000) scale(0.100000,-0.100000)"
fill="#000000" stroke="none">
<path d="M0 3500 l0 -3500 3500 0 3500 0 0 3500 0 3500 -3500 0 -3500 0 0
-3500z m1798 2615 c64 -20 189 -49 277 -66 411 -79 682 -204 929 -430 31 -28
56 -48 56 -44 0 3 -19 34 -42 68 -54 81 -175 206 -262 270 -88 66 -108 115
-66 157 34 34 84 26 154 -24 292 -209 494 -537 562 -911 25 -138 30 -508 10
-662 -21 -157 -32 -181 -78 -174 -4 0 -167 -44 -361 -99 -350 -99 -354 -100
-472 -102 -136 -2 -162 5 -310 79 -114 57 -199 117 -298 212 -109 105 -188
213 -257 355 -105 215 -136 383 -127 690 6 206 26 350 76 542 39 146 56 188
77 180 9 -3 68 -22 132 -41z m3007 -347 c17 -16 26 -34 27 -55 2 -55 -22 -77
-109 -102 -102 -29 -249 -99 -329 -156 -34 -25 -65 -49 -68 -54 -3 -4 32 7 77
25 278 112 589 141 928 88 90 -14 236 -29 324 -32 l160 -7 -1 -156 c-2 -171
-11 -247 -54 -419 -115 -463 -298 -739 -623 -944 -217 -136 -570 -217 -746
-172 -98 25 -147 54 -487 291 l-316 220 5 70 c7 87 64 310 111 433 55 143 140
316 200 406 174 260 408 442 711 552 109 40 154 42 190 12z m-1475 -1713 c0
-16 -100 -609 -103 -611 -1 0 -33 -26 -72 -56 -75 -59 -124 -108 -109 -108 5
1 70 34 144 75 74 40 136 72 137 71 5 -4 -93 -228 -137 -316 -99 -197 -264
-393 -398 -474 -162 -98 -349 -120 -507 -61 -201 75 -303 214 -335 458 -29
218 52 458 210 617 208 210 531 343 980 404 146 20 190 20 190 1z m375 -75
c154 -72 331 -177 445 -261 193 -144 365 -352 429 -518 74 -195 60 -419 -40
-611 -104 -201 -244 -294 -460 -307 -214 -13 -368 70 -499 269 -106 162 -174
350 -199 553 -11 87 -15 315 -7 315 3 0 31 -28 63 -62 152 -163 164 -174 153
-145 -15 43 -40 87 -82 149 l-38 57 52 311 c29 170 54 310 55 310 1 0 59 -27
128 -60z m-1037 -1616 c14 -10 22 -25 22 -45 0 -46 -395 -1080 -421 -1101 -12
-10 -32 -18 -45 -18 -28 0 -64 32 -64 58 0 32 402 1076 423 1100 24 26 54 28
85 6z m-496 -101 c10 -9 18 -25 18 -36 0 -27 -209 -557 -228 -579 -19 -22 -75
-23 -96 -2 -9 8 -16 26 -16 39 0 30 206 554 227 578 20 22 71 22 95 0z m1588
-113 c11 -11 20 -26 20 -32 0 -7 -88 -242 -196 -523 -137 -355 -204 -517 -221
-533 -40 -37 -87 -24 -106 31 -7 20 384 1030 411 1060 20 23 67 22 92 -3z
m219 -396 c12 -15 21 -30 21 -35 0 -19 -204 -522 -217 -535 -25 -24 -84 -14
-102 17 -14 26 -10 39 84 279 55 139 107 263 118 276 26 33 69 32 96 -2z"/>
<path d="M1736 5883 c-46 -202 -72 -478 -61 -633 23 -309 132 -552 334 -743
89 -84 170 -138 290 -195 84 -40 106 -46 176 -49 76 -4 97 1 415 90 l335 94 8
54 c12 76 2 289 -18 384 -35 170 -98 318 -196 464 -69 103 -157 188 -284 273
-195 131 -370 199 -653 254 -97 18 -208 43 -247 54 -38 11 -73 20 -77 20 -3 0
-13 -30 -22 -67z"/>
<path d="M4795 5359 c-96 -14 -256 -57 -349 -93 -172 -68 -365 -236 -493 -431
-81 -122 -165 -325 -184 -442 -3 -19 38 -51 280 -219 178 -123 305 -204 340
-217 112 -41 327 -17 507 57 234 95 429 274 543 496 94 182 189 513 207 721
l7 77 -84 7 c-46 3 -163 17 -259 31 -183 25 -393 30 -515 13z"/>
<path d="M2954 3836 c-396 -83 -677 -249 -779 -461 -52 -106 -73 -230 -58
-333 24 -164 82 -257 192 -306 195 -87 356 -43 542 150 54 56 119 140 119 153
0 3 -25 4 -55 3 -50 -4 -57 -1 -86 28 -28 28 -31 36 -27 78 10 102 105 253
218 346 l56 45 23 138 c12 76 25 148 28 161 5 19 1 22 -28 21 -19 0 -84 -11
-145 -23z"/>
<path d="M3677 3625 l-28 -165 29 -43 c81 -118 124 -287 103 -402 -16 -88 -92
-122 -169 -75 l-32 20 6 -28 c27 -117 75 -219 149 -318 88 -118 188 -169 330
-169 150 1 249 70 325 229 83 174 79 368 -10 534 -104 192 -306 379 -571 528
-53 30 -99 54 -101 54 -2 0 -16 -74 -31 -165z"/>
</g>
</svg>
